solid OpenSCAD_Model
  facet normal 0.996917 0.0784626 0
    outer loop
      vertex 6.15 0 63
      vertex 6.07428 0.962071 60
      vertex 6.07428 0.962071 63
    endloop
  endfacet
  facet normal 0.996917 0.0784626 0
    outer loop
      vertex 6.07428 0.962071 60
      vertex 6.15 0 63
      vertex 6.15 0 60
    endloop
  endfacet
  facet normal -0.996917 0.0784626 0
    outer loop
      vertex -6.15 0 60
      vertex -6.07428 0.962071 63
      vertex -6.07428 0.962071 60
    endloop
  endfacet
  facet normal -0.996917 0.0784626 0
    outer loop
      vertex -6.07428 0.962071 63
      vertex -6.15 0 60
      vertex -6.15 0 63
    endloop
  endfacet
  facet normal 0.0784626 0.996917 -0
    outer loop
      vertex 0.962071 6.07428 60
      vertex 0 6.15 63
      vertex 0.962071 6.07428 63
    endloop
  endfacet
  facet normal 0.0784626 0.996917 0
    outer loop
      vertex 0 6.15 63
      vertex 0.962071 6.07428 60
      vertex 0 6.15 60
    endloop
  endfacet
  facet normal -0.0784626 -0.996917 0
    outer loop
      vertex -0.962071 -6.07428 60
      vertex 0 -6.15 63
      vertex -0.962071 -6.07428 63
    endloop
  endfacet
  facet normal -0.0784626 -0.996917 -0
    outer loop
      vertex 0 -6.15 63
      vertex -0.962071 -6.07428 60
      vertex 0 -6.15 60
    endloop
  endfacet
  facet normal 0.649442 0.760411 -0
    outer loop
      vertex 4.34871 4.34871 60
      vertex 3.61488 4.97545 63
      vertex 4.34871 4.34871 63
    endloop
  endfacet
  facet normal 0.649442 0.760411 0
    outer loop
      vertex 3.61488 4.97545 63
      vertex 4.34871 4.34871 60
      vertex 3.61488 4.97545 60
    endloop
  endfacet
  facet normal -0.649442 0.760411 0
    outer loop
      vertex -3.61488 4.97545 60
      vertex -4.34871 4.34871 63
      vertex -3.61488 4.97545 63
    endloop
  endfacet
  facet normal -0.649442 0.760411 0
    outer loop
      vertex -4.34871 4.34871 63
      vertex -3.61488 4.97545 60
      vertex -4.34871 4.34871 60
    endloop
  endfacet
  facet normal -0.382685 0.923879 0
    outer loop
      vertex -1.90045 5.849 60
      vertex -2.79204 5.47969 63
      vertex -1.90045 5.849 63
    endloop
  endfacet
  facet normal -0.382685 0.923879 0
    outer loop
      vertex -2.79204 5.47969 63
      vertex -1.90045 5.849 60
      vertex -2.79204 5.47969 60
    endloop
  endfacet
  facet normal 0.852639 -0.522501 0
    outer loop
      vertex 4.97545 -3.61488 63
      vertex 5.47969 -2.79204 60
      vertex 5.47969 -2.79204 63
    endloop
  endfacet
  facet normal 0.852639 -0.522501 0
    outer loop
      vertex 5.47969 -2.79204 60
      vertex 4.97545 -3.61488 63
      vertex 4.97545 -3.61488 60
    endloop
  endfacet
  facet normal 0.852639 0.522501 0
    outer loop
      vertex 5.47969 2.79204 63
      vertex 4.97545 3.61488 60
      vertex 4.97545 3.61488 63
    endloop
  endfacet
  facet normal 0.852639 0.522501 0
    outer loop
      vertex 4.97545 3.61488 60
      vertex 5.47969 2.79204 63
      vertex 5.47969 2.79204 60
    endloop
  endfacet
  facet normal 0.972371 0.233441 0
    outer loop
      vertex 6.07428 0.962071 63
      vertex 5.849 1.90045 60
      vertex 5.849 1.90045 63
    endloop
  endfacet
  facet normal 0.972371 0.233441 0
    outer loop
      vertex 5.849 1.90045 60
      vertex 6.07428 0.962071 63
      vertex 6.07428 0.962071 60
    endloop
  endfacet
  facet normal 0.760411 0.649442 0
    outer loop
      vertex 4.97545 3.61488 63
      vertex 4.34871 4.34871 60
      vertex 4.34871 4.34871 63
    endloop
  endfacet
  facet normal 0.760411 0.649442 0
    outer loop
      vertex 4.34871 4.34871 60
      vertex 4.97545 3.61488 63
      vertex 4.97545 3.61488 60
    endloop
  endfacet
  facet normal 0.382685 0.923879 -0
    outer loop
      vertex 2.79204 5.47969 60
      vertex 1.90045 5.849 63
      vertex 2.79204 5.47969 63
    endloop
  endfacet
  facet normal 0.382685 0.923879 0
    outer loop
      vertex 1.90045 5.849 63
      vertex 2.79204 5.47969 60
      vertex 1.90045 5.849 60
    endloop
  endfacet
  facet normal 0.233441 0.972371 -0
    outer loop
      vertex 1.90045 5.849 60
      vertex 0.962071 6.07428 63
      vertex 1.90045 5.849 63
    endloop
  endfacet
  facet normal 0.233441 0.972371 0
    outer loop
      vertex 0.962071 6.07428 63
      vertex 1.90045 5.849 60
      vertex 0.962071 6.07428 60
    endloop
  endfacet
  facet normal 0.522501 0.852639 -0
    outer loop
      vertex 3.61488 4.97545 60
      vertex 2.79204 5.47969 63
      vertex 3.61488 4.97545 63
    endloop
  endfacet
  facet normal 0.522501 0.852639 0
    outer loop
      vertex 2.79204 5.47969 63
      vertex 3.61488 4.97545 60
      vertex 2.79204 5.47969 60
    endloop
  endfacet
  facet normal -0.852639 0.522501 0
    outer loop
      vertex -5.47969 2.79204 60
      vertex -4.97545 3.61488 63
      vertex -4.97545 3.61488 60
    endloop
  endfacet
  facet normal -0.852639 0.522501 0
    outer loop
      vertex -4.97545 3.61488 63
      vertex -5.47969 2.79204 60
      vertex -5.47969 2.79204 63
    endloop
  endfacet
  facet normal -0.760411 0.649442 0
    outer loop
      vertex -4.97545 3.61488 60
      vertex -4.34871 4.34871 63
      vertex -4.34871 4.34871 60
    endloop
  endfacet
  facet normal -0.760411 0.649442 0
    outer loop
      vertex -4.34871 4.34871 63
      vertex -4.97545 3.61488 60
      vertex -4.97545 3.61488 63
    endloop
  endfacet
  facet normal -0.923879 0.382685 0
    outer loop
      vertex -5.849 1.90045 60
      vertex -5.47969 2.79204 63
      vertex -5.47969 2.79204 60
    endloop
  endfacet
  facet normal -0.923879 0.382685 0
    outer loop
      vertex -5.47969 2.79204 63
      vertex -5.849 1.90045 60
      vertex -5.849 1.90045 63
    endloop
  endfacet
  facet normal -0.522501 0.852639 0
    outer loop
      vertex -2.79204 5.47969 60
      vertex -3.61488 4.97545 63
      vertex -2.79204 5.47969 63
    endloop
  endfacet
  facet normal -0.522501 0.852639 0
    outer loop
      vertex -3.61488 4.97545 63
      vertex -2.79204 5.47969 60
      vertex -3.61488 4.97545 60
    endloop
  endfacet
  facet normal -0.233441 0.972371 0
    outer loop
      vertex -0.962071 6.07428 60
      vertex -1.90045 5.849 63
      vertex -0.962071 6.07428 63
    endloop
  endfacet
  facet normal -0.233441 0.972371 0
    outer loop
      vertex -1.90045 5.849 63
      vertex -0.962071 6.07428 60
      vertex -1.90045 5.849 60
    endloop
  endfacet
  facet normal 0.760411 -0.649442 0
    outer loop
      vertex 4.34871 -4.34871 63
      vertex 4.97545 -3.61488 60
      vertex 4.97545 -3.61488 63
    endloop
  endfacet
  facet normal 0.760411 -0.649442 0
    outer loop
      vertex 4.97545 -3.61488 60
      vertex 4.34871 -4.34871 63
      vertex 4.34871 -4.34871 60
    endloop
  endfacet
  facet normal 0.522501 -0.852639 0
    outer loop
      vertex 2.79204 -5.47969 60
      vertex 3.61488 -4.97545 63
      vertex 2.79204 -5.47969 63
    endloop
  endfacet
  facet normal 0.522501 -0.852639 0
    outer loop
      vertex 3.61488 -4.97545 63
      vertex 2.79204 -5.47969 60
      vertex 3.61488 -4.97545 60
    endloop
  endfacet
  facet normal -0.522501 -0.852639 0
    outer loop
      vertex -3.61488 -4.97545 60
      vertex -2.79204 -5.47969 63
      vertex -3.61488 -4.97545 63
    endloop
  endfacet
  facet normal -0.522501 -0.852639 -0
    outer loop
      vertex -2.79204 -5.47969 63
      vertex -3.61488 -4.97545 60
      vertex -2.79204 -5.47969 60
    endloop
  endfacet
  facet normal -0.649442 -0.760411 0
    outer loop
      vertex -4.34871 -4.34871 60
      vertex -3.61488 -4.97545 63
      vertex -4.34871 -4.34871 63
    endloop
  endfacet
  facet normal -0.649442 -0.760411 -0
    outer loop
      vertex -3.61488 -4.97545 63
      vertex -4.34871 -4.34871 60
      vertex -3.61488 -4.97545 60
    endloop
  endfacet
  facet normal -0.382685 -0.923879 0
    outer loop
      vertex -2.79204 -5.47969 60
      vertex -1.90045 -5.849 63
      vertex -2.79204 -5.47969 63
    endloop
  endfacet
  facet normal -0.382685 -0.923879 -0
    outer loop
      vertex -1.90045 -5.849 63
      vertex -2.79204 -5.47969 60
      vertex -1.90045 -5.849 60
    endloop
  endfacet
  facet normal -0.852639 -0.522501 0
    outer loop
      vertex -4.97545 -3.61488 60
      vertex -5.47969 -2.79204 63
      vertex -5.47969 -2.79204 60
    endloop
  endfacet
  facet normal -0.852639 -0.522501 0
    outer loop
      vertex -5.47969 -2.79204 63
      vertex -4.97545 -3.61488 60
      vertex -4.97545 -3.61488 63
    endloop
  endfacet
  facet normal -0.760411 -0.649442 0
    outer loop
      vertex -4.34871 -4.34871 60
      vertex -4.97545 -3.61488 63
      vertex -4.97545 -3.61488 60
    endloop
  endfacet
  facet normal -0.760411 -0.649442 0
    outer loop
      vertex -4.97545 -3.61488 63
      vertex -4.34871 -4.34871 60
      vertex -4.34871 -4.34871 63
    endloop
  endfacet
  facet normal 0 0 -1
    outer loop
      vertex 2.5 -2.5 60
      vertex 6.15 0 60
      vertex 6.07428 -0.962071 60
    endloop
  endfacet
  facet normal 0 0 -1
    outer loop
      vertex 2.5 -2.5 60
      vertex 6.07428 -0.962071 60
      vertex 5.849 -1.90045 60
    endloop
  endfacet
  facet normal 0 0 -1
    outer loop
      vertex 2.5 2.5 60
      vertex 6.15 0 60
      vertex 2.5 -2.5 60
    endloop
  endfacet
  facet normal 0 0 -1
    outer loop
      vertex 2.5 -2.5 60
      vertex 5.849 -1.90045 60
      vertex 5.47969 -2.79204 60
    endloop
  endfacet
  facet normal 0 0 -1
    outer loop
      vertex 6.15 0 60
      vertex 2.5 2.5 60
      vertex 6.07428 0.962071 60
    endloop
  endfacet
  facet normal 0 0 -1
    outer loop
      vertex 2.5 -2.5 60
      vertex 5.47969 -2.79204 60
      vertex 4.97545 -3.61488 60
    endloop
  endfacet
  facet normal 0 0 -1
    outer loop
      vertex 6.07428 0.962071 60
      vertex 2.5 2.5 60
      vertex 5.849 1.90045 60
    endloop
  endfacet
  facet normal 0 0 -1
    outer loop
      vertex 2.5 -2.5 60
      vertex 4.97545 -3.61488 60
      vertex 4.34871 -4.34871 60
    endloop
  endfacet
  facet normal 0 0 -1
    outer loop
      vertex 5.849 1.90045 60
      vertex 2.5 2.5 60
      vertex 5.47969 2.79204 60
    endloop
  endfacet
  facet normal 0 0 -1
    outer loop
      vertex 2.5 -2.5 60
      vertex 4.34871 -4.34871 60
      vertex 3.61488 -4.97545 60
    endloop
  endfacet
  facet normal -0 0 -1
    outer loop
      vertex 5.47969 2.79204 60
      vertex 2.5 2.5 60
      vertex 4.97545 3.61488 60
    endloop
  endfacet
  facet normal 0 0 -1
    outer loop
      vertex 2.5 -2.5 60
      vertex 3.61488 -4.97545 60
      vertex 2.79204 -5.47969 60
    endloop
  endfacet
  facet normal -0 0 -1
    outer loop
      vertex 4.97545 3.61488 60
      vertex 2.5 2.5 60
      vertex 4.34871 4.34871 60
    endloop
  endfacet
  facet normal -0 0 -1
    outer loop
      vertex 4.34871 4.34871 60
      vertex 2.5 2.5 60
      vertex 3.61488 4.97545 60
    endloop
  endfacet
  facet normal 0 0 -1
    outer loop
      vertex 1.90045 -5.849 60
      vertex 2.5 -2.5 60
      vertex 2.79204 -5.47969 60
    endloop
  endfacet
  facet normal 0 0 -1
    outer loop
      vertex 0.962071 -6.07428 60
      vertex 2.5 -2.5 60
      vertex 1.90045 -5.849 60
    endloop
  endfacet
  facet normal 0 0 -1
    outer loop
      vertex 0 -6.15 60
      vertex 2.5 -2.5 60
      vertex 0.962071 -6.07428 60
    endloop
  endfacet
  facet normal 0 0 -1
    outer loop
      vertex -2.5 -2.5 60
      vertex 0 -6.15 60
      vertex -0.962071 -6.07428 60
    endloop
  endfacet
  facet normal 0 0 -1
    outer loop
      vertex -2.5 -2.5 60
      vertex -0.962071 -6.07428 60
      vertex -1.90045 -5.849 60
    endloop
  endfacet
  facet normal 0 0 -1
    outer loop
      vertex 0 -6.15 60
      vertex -2.5 -2.5 60
      vertex 2.5 -2.5 60
    endloop
  endfacet
  facet normal 0 0 -1
    outer loop
      vertex -3.61488 -4.97545 60
      vertex -2.5 -2.5 60
      vertex -2.79204 -5.47969 60
    endloop
  endfacet
  facet normal 0 0 -1
    outer loop
      vertex -2.79204 -5.47969 60
      vertex -2.5 -2.5 60
      vertex -1.90045 -5.849 60
    endloop
  endfacet
  facet normal -0 0 -1
    outer loop
      vertex 3.61488 4.97545 60
      vertex 2.5 2.5 60
      vertex 2.79204 5.47969 60
    endloop
  endfacet
  facet normal 0 0 -1
    outer loop
      vertex 2.5 2.5 60
      vertex 1.90045 5.849 60
      vertex 2.79204 5.47969 60
    endloop
  endfacet
  facet normal 0 0 -1
    outer loop
      vertex 2.5 2.5 60
      vertex 0.962071 6.07428 60
      vertex 1.90045 5.849 60
    endloop
  endfacet
  facet normal 0 0 -1
    outer loop
      vertex 2.5 2.5 60
      vertex 0 6.15 60
      vertex 0.962071 6.07428 60
    endloop
  endfacet
  facet normal 0 0 -1
    outer loop
      vertex -2.5 2.5 60
      vertex 0 6.15 60
      vertex 2.5 2.5 60
    endloop
  endfacet
  facet normal 0 0 -1
    outer loop
      vertex 0 6.15 60
      vertex -2.5 2.5 60
      vertex -0.962071 6.07428 60
    endloop
  endfacet
  facet normal 0 0 -1
    outer loop
      vertex -0.962071 6.07428 60
      vertex -2.5 2.5 60
      vertex -1.90045 5.849 60
    endloop
  endfacet
  facet normal 0 0 -1
    outer loop
      vertex -2.5 2.5 60
      vertex -2.79204 5.47969 60
      vertex -1.90045 5.849 60
    endloop
  endfacet
  facet normal 0 0 -1
    outer loop
      vertex -4.34871 -4.34871 60
      vertex -2.5 -2.5 60
      vertex -3.61488 -4.97545 60
    endloop
  endfacet
  facet normal 0 0 -1
    outer loop
      vertex -4.97545 -3.61488 60
      vertex -2.5 -2.5 60
      vertex -4.34871 -4.34871 60
    endloop
  endfacet
  facet normal 0 0 -1
    outer loop
      vertex -2.5 2.5 60
      vertex -3.61488 4.97545 60
      vertex -2.79204 5.47969 60
    endloop
  endfacet
  facet normal 0 0 -1
    outer loop
      vertex -5.47969 -2.79204 60
      vertex -2.5 -2.5 60
      vertex -4.97545 -3.61488 60
    endloop
  endfacet
  facet normal 0 0 -1
    outer loop
      vertex -2.5 2.5 60
      vertex -4.34871 4.34871 60
      vertex -3.61488 4.97545 60
    endloop
  endfacet
  facet normal 0 0 -1
    outer loop
      vertex -5.849 -1.90045 60
      vertex -2.5 -2.5 60
      vertex -5.47969 -2.79204 60
    endloop
  endfacet
  facet normal 0 0 -1
    outer loop
      vertex -2.5 2.5 60
      vertex -4.97545 3.61488 60
      vertex -4.34871 4.34871 60
    endloop
  endfacet
  facet normal 0 0 -1
    outer loop
      vertex -6.07428 -0.962071 60
      vertex -2.5 -2.5 60
      vertex -5.849 -1.90045 60
    endloop
  endfacet
  facet normal 0 0 -1
    outer loop
      vertex -2.5 2.5 60
      vertex -5.47969 2.79204 60
      vertex -4.97545 3.61488 60
    endloop
  endfacet
  facet normal 0 0 -1
    outer loop
      vertex -6.15 0 60
      vertex -2.5 -2.5 60
      vertex -6.07428 -0.962071 60
    endloop
  endfacet
  facet normal -0 0 -1
    outer loop
      vertex -2.5 2.5 60
      vertex -5.849 1.90045 60
      vertex -5.47969 2.79204 60
    endloop
  endfacet
  facet normal 0 0 -1
    outer loop
      vertex -2.5 -2.5 60
      vertex -6.15 0 60
      vertex -2.5 2.5 60
    endloop
  endfacet
  facet normal 0 0 -1
    outer loop
      vertex -2.5 2.5 60
      vertex -6.07428 0.962071 60
      vertex -5.849 1.90045 60
    endloop
  endfacet
  facet normal 0 0 -1
    outer loop
      vertex -2.5 2.5 60
      vertex -6.15 0 60
      vertex -6.07428 0.962071 60
    endloop
  endfacet
  facet normal 0.923879 0.382685 0
    outer loop
      vertex 5.849 1.90045 63
      vertex 5.47969 2.79204 60
      vertex 5.47969 2.79204 63
    endloop
  endfacet
  facet normal 0.923879 0.382685 0
    outer loop
      vertex 5.47969 2.79204 60
      vertex 5.849 1.90045 63
      vertex 5.849 1.90045 60
    endloop
  endfacet
  facet normal -0.972371 0.233441 0
    outer loop
      vertex -6.07428 0.962071 60
      vertex -5.849 1.90045 63
      vertex -5.849 1.90045 60
    endloop
  endfacet
  facet normal -0.972371 0.233441 0
    outer loop
      vertex -5.849 1.90045 63
      vertex -6.07428 0.962071 60
      vertex -6.07428 0.962071 63
    endloop
  endfacet
  facet normal 0 0 1
    outer loop
      vertex 2.5 2.5 63
      vertex 6.15 0 63
      vertex 6.07428 0.962071 63
    endloop
  endfacet
  facet normal 0 0 1
    outer loop
      vertex 2.5 2.5 63
      vertex 6.07428 0.962071 63
      vertex 5.849 1.90045 63
    endloop
  endfacet
  facet normal 0 0 1
    outer loop
      vertex 2.5 -2.5 63
      vertex 6.15 0 63
      vertex 2.5 2.5 63
    endloop
  endfacet
  facet normal -0 0 1
    outer loop
      vertex 2.5 2.5 63
      vertex 5.849 1.90045 63
      vertex 5.47969 2.79204 63
    endloop
  endfacet
  facet normal 0 0 1
    outer loop
      vertex 6.15 0 63
      vertex 2.5 -2.5 63
      vertex 6.07428 -0.962071 63
    endloop
  endfacet
  facet normal 0 0 1
    outer loop
      vertex 2.5 2.5 63
      vertex 5.47969 2.79204 63
      vertex 4.97545 3.61488 63
    endloop
  endfacet
  facet normal 0 0 1
    outer loop
      vertex 6.07428 -0.962071 63
      vertex 2.5 -2.5 63
      vertex 5.849 -1.90045 63
    endloop
  endfacet
  facet normal 0 0 1
    outer loop
      vertex 2.5 2.5 63
      vertex 4.97545 3.61488 63
      vertex 4.34871 4.34871 63
    endloop
  endfacet
  facet normal 0 0 1
    outer loop
      vertex 5.849 -1.90045 63
      vertex 2.5 -2.5 63
      vertex 5.47969 -2.79204 63
    endloop
  endfacet
  facet normal 0 0 1
    outer loop
      vertex 2.5 2.5 63
      vertex 4.34871 4.34871 63
      vertex 3.61488 4.97545 63
    endloop
  endfacet
  facet normal 0 0 1
    outer loop
      vertex 5.47969 -2.79204 63
      vertex 2.5 -2.5 63
      vertex 4.97545 -3.61488 63
    endloop
  endfacet
  facet normal 0 0 1
    outer loop
      vertex 2.5 2.5 63
      vertex 3.61488 4.97545 63
      vertex 2.79204 5.47969 63
    endloop
  endfacet
  facet normal 0 0 1
    outer loop
      vertex 4.97545 -3.61488 63
      vertex 2.5 -2.5 63
      vertex 4.34871 -4.34871 63
    endloop
  endfacet
  facet normal 0 0 1
    outer loop
      vertex 4.34871 -4.34871 63
      vertex 2.5 -2.5 63
      vertex 3.61488 -4.97545 63
    endloop
  endfacet
  facet normal 0 0 1
    outer loop
      vertex 1.90045 5.849 63
      vertex 2.5 2.5 63
      vertex 2.79204 5.47969 63
    endloop
  endfacet
  facet normal 0 0 1
    outer loop
      vertex 0.962071 6.07428 63
      vertex 2.5 2.5 63
      vertex 1.90045 5.849 63
    endloop
  endfacet
  facet normal 0 0 1
    outer loop
      vertex 0 6.15 63
      vertex 2.5 2.5 63
      vertex 0.962071 6.07428 63
    endloop
  endfacet
  facet normal 0 0 1
    outer loop
      vertex -2.5 2.5 63
      vertex 0 6.15 63
      vertex -0.962071 6.07428 63
    endloop
  endfacet
  facet normal 0 0 1
    outer loop
      vertex -2.5 2.5 63
      vertex -0.962071 6.07428 63
      vertex -1.90045 5.849 63
    endloop
  endfacet
  facet normal 0 0 1
    outer loop
      vertex 0 6.15 63
      vertex -2.5 2.5 63
      vertex 2.5 2.5 63
    endloop
  endfacet
  facet normal -0 0 1
    outer loop
      vertex -3.61488 4.97545 63
      vertex -2.5 2.5 63
      vertex -2.79204 5.47969 63
    endloop
  endfacet
  facet normal -0 0 1
    outer loop
      vertex -2.79204 5.47969 63
      vertex -2.5 2.5 63
      vertex -1.90045 5.849 63
    endloop
  endfacet
  facet normal 0 0 1
    outer loop
      vertex 3.61488 -4.97545 63
      vertex 2.5 -2.5 63
      vertex 2.79204 -5.47969 63
    endloop
  endfacet
  facet normal 0 0 1
    outer loop
      vertex 2.5 -2.5 63
      vertex 1.90045 -5.849 63
      vertex 2.79204 -5.47969 63
    endloop
  endfacet
  facet normal 0 0 1
    outer loop
      vertex 2.5 -2.5 63
      vertex 0.962071 -6.07428 63
      vertex 1.90045 -5.849 63
    endloop
  endfacet
  facet normal 0 0 1
    outer loop
      vertex 2.5 -2.5 63
      vertex 0 -6.15 63
      vertex 0.962071 -6.07428 63
    endloop
  endfacet
  facet normal -0 0 1
    outer loop
      vertex -2.5 -2.5 63
      vertex 0 -6.15 63
      vertex 2.5 -2.5 63
    endloop
  endfacet
  facet normal 0 0 1
    outer loop
      vertex 0 -6.15 63
      vertex -2.5 -2.5 63
      vertex -0.962071 -6.07428 63
    endloop
  endfacet
  facet normal 0 0 1
    outer loop
      vertex -0.962071 -6.07428 63
      vertex -2.5 -2.5 63
      vertex -1.90045 -5.849 63
    endloop
  endfacet
  facet normal 0 0 1
    outer loop
      vertex -2.5 -2.5 63
      vertex -2.79204 -5.47969 63
      vertex -1.90045 -5.849 63
    endloop
  endfacet
  facet normal -0 0 1
    outer loop
      vertex -4.34871 4.34871 63
      vertex -2.5 2.5 63
      vertex -3.61488 4.97545 63
    endloop
  endfacet
  facet normal -0 0 1
    outer loop
      vertex -4.97545 3.61488 63
      vertex -2.5 2.5 63
      vertex -4.34871 4.34871 63
    endloop
  endfacet
  facet normal 0 0 1
    outer loop
      vertex -2.5 -2.5 63
      vertex -3.61488 -4.97545 63
      vertex -2.79204 -5.47969 63
    endloop
  endfacet
  facet normal -0 0 1
    outer loop
      vertex -5.47969 2.79204 63
      vertex -2.5 2.5 63
      vertex -4.97545 3.61488 63
    endloop
  endfacet
  facet normal 0 0 1
    outer loop
      vertex -2.5 -2.5 63
      vertex -4.34871 -4.34871 63
      vertex -3.61488 -4.97545 63
    endloop
  endfacet
  facet normal 0 0 1
    outer loop
      vertex -5.849 1.90045 63
      vertex -2.5 2.5 63
      vertex -5.47969 2.79204 63
    endloop
  endfacet
  facet normal 0 0 1
    outer loop
      vertex -2.5 -2.5 63
      vertex -4.97545 -3.61488 63
      vertex -4.34871 -4.34871 63
    endloop
  endfacet
  facet normal 0 0 1
    outer loop
      vertex -6.07428 0.962071 63
      vertex -2.5 2.5 63
      vertex -5.849 1.90045 63
    endloop
  endfacet
  facet normal 0 0 1
    outer loop
      vertex -2.5 -2.5 63
      vertex -5.47969 -2.79204 63
      vertex -4.97545 -3.61488 63
    endloop
  endfacet
  facet normal 0 0 1
    outer loop
      vertex -6.15 0 63
      vertex -2.5 2.5 63
      vertex -6.07428 0.962071 63
    endloop
  endfacet
  facet normal 0 0 1
    outer loop
      vertex -2.5 -2.5 63
      vertex -5.849 -1.90045 63
      vertex -5.47969 -2.79204 63
    endloop
  endfacet
  facet normal 0 0 1
    outer loop
      vertex -2.5 2.5 63
      vertex -6.15 0 63
      vertex -2.5 -2.5 63
    endloop
  endfacet
  facet normal 0 0 1
    outer loop
      vertex -2.5 -2.5 63
      vertex -6.07428 -0.962071 63
      vertex -5.849 -1.90045 63
    endloop
  endfacet
  facet normal 0 0 1
    outer loop
      vertex -2.5 -2.5 63
      vertex -6.15 0 63
      vertex -6.07428 -0.962071 63
    endloop
  endfacet
  facet normal -0.0784626 0.996917 0
    outer loop
      vertex 0 6.15 60
      vertex -0.962071 6.07428 63
      vertex 0 6.15 63
    endloop
  endfacet
  facet normal -0.0784626 0.996917 0
    outer loop
      vertex -0.962071 6.07428 63
      vertex 0 6.15 60
      vertex -0.962071 6.07428 60
    endloop
  endfacet
  facet normal 0.0784626 -0.996917 0
    outer loop
      vertex 0 -6.15 60
      vertex 0.962071 -6.07428 63
      vertex 0 -6.15 63
    endloop
  endfacet
  facet normal 0.0784626 -0.996917 0
    outer loop
      vertex 0.962071 -6.07428 63
      vertex 0 -6.15 60
      vertex 0.962071 -6.07428 60
    endloop
  endfacet
  facet normal 0.382685 -0.923879 0
    outer loop
      vertex 1.90045 -5.849 60
      vertex 2.79204 -5.47969 63
      vertex 1.90045 -5.849 63
    endloop
  endfacet
  facet normal 0.382685 -0.923879 0
    outer loop
      vertex 2.79204 -5.47969 63
      vertex 1.90045 -5.849 60
      vertex 2.79204 -5.47969 60
    endloop
  endfacet
  facet normal 0.649442 -0.760411 0
    outer loop
      vertex 3.61488 -4.97545 60
      vertex 4.34871 -4.34871 63
      vertex 3.61488 -4.97545 63
    endloop
  endfacet
  facet normal 0.649442 -0.760411 0
    outer loop
      vertex 4.34871 -4.34871 63
      vertex 3.61488 -4.97545 60
      vertex 4.34871 -4.34871 60
    endloop
  endfacet
  facet normal 0.923879 -0.382685 0
    outer loop
      vertex 5.47969 -2.79204 63
      vertex 5.849 -1.90045 60
      vertex 5.849 -1.90045 63
    endloop
  endfacet
  facet normal 0.923879 -0.382685 0
    outer loop
      vertex 5.849 -1.90045 60
      vertex 5.47969 -2.79204 63
      vertex 5.47969 -2.79204 60
    endloop
  endfacet
  facet normal 0.972371 -0.233441 0
    outer loop
      vertex 5.849 -1.90045 63
      vertex 6.07428 -0.962071 60
      vertex 6.07428 -0.962071 63
    endloop
  endfacet
  facet normal 0.972371 -0.233441 0
    outer loop
      vertex 6.07428 -0.962071 60
      vertex 5.849 -1.90045 63
      vertex 5.849 -1.90045 60
    endloop
  endfacet
  facet normal -0.233441 -0.972371 0
    outer loop
      vertex -1.90045 -5.849 60
      vertex -0.962071 -6.07428 63
      vertex -1.90045 -5.849 63
    endloop
  endfacet
  facet normal -0.233441 -0.972371 -0
    outer loop
      vertex -0.962071 -6.07428 63
      vertex -1.90045 -5.849 60
      vertex -0.962071 -6.07428 60
    endloop
  endfacet
  facet normal -0.923879 -0.382685 0
    outer loop
      vertex -5.47969 -2.79204 60
      vertex -5.849 -1.90045 63
      vertex -5.849 -1.90045 60
    endloop
  endfacet
  facet normal -0.923879 -0.382685 0
    outer loop
      vertex -5.849 -1.90045 63
      vertex -5.47969 -2.79204 60
      vertex -5.47969 -2.79204 63
    endloop
  endfacet
  facet normal -0.996917 -0.0784626 0
    outer loop
      vertex -6.07428 -0.962071 60
      vertex -6.15 0 63
      vertex -6.15 0 60
    endloop
  endfacet
  facet normal -0.996917 -0.0784626 0
    outer loop
      vertex -6.15 0 63
      vertex -6.07428 -0.962071 60
      vertex -6.07428 -0.962071 63
    endloop
  endfacet
  facet normal 0.233441 -0.972371 0
    outer loop
      vertex 0.962071 -6.07428 60
      vertex 1.90045 -5.849 63
      vertex 0.962071 -6.07428 63
    endloop
  endfacet
  facet normal 0.233441 -0.972371 0
    outer loop
      vertex 1.90045 -5.849 63
      vertex 0.962071 -6.07428 60
      vertex 1.90045 -5.849 60
    endloop
  endfacet
  facet normal 0.996917 -0.0784626 0
    outer loop
      vertex 6.07428 -0.962071 63
      vertex 6.15 0 60
      vertex 6.15 0 63
    endloop
  endfacet
  facet normal 0.996917 -0.0784626 0
    outer loop
      vertex 6.15 0 60
      vertex 6.07428 -0.962071 63
      vertex 6.07428 -0.962071 60
    endloop
  endfacet
  facet normal -0.972371 -0.233441 0
    outer loop
      vertex -5.849 -1.90045 60
      vertex -6.07428 -0.962071 63
      vertex -6.07428 -0.962071 60
    endloop
  endfacet
  facet normal -0.972371 -0.233441 0
    outer loop
      vertex -6.07428 -0.962071 63
      vertex -5.849 -1.90045 60
      vertex -5.849 -1.90045 63
    endloop
  endfacet
  facet normal 1 -0 0
    outer loop
      vertex -2.5 -2.5 63
      vertex -2.5 2.5 60
      vertex -2.5 2.5 63
    endloop
  endfacet
  facet normal 1 0 0
    outer loop
      vertex -2.5 2.5 60
      vertex -2.5 -2.5 63
      vertex -2.5 -2.5 60
    endloop
  endfacet
  facet normal -1 0 0
    outer loop
      vertex 2.5 -2.5 60
      vertex 2.5 2.5 63
      vertex 2.5 2.5 60
    endloop
  endfacet
  facet normal -1 -0 0
    outer loop
      vertex 2.5 2.5 63
      vertex 2.5 -2.5 60
      vertex 2.5 -2.5 63
    endloop
  endfacet
  facet normal 0 1 -0
    outer loop
      vertex 2.5 -2.5 60
      vertex -2.5 -2.5 63
      vertex 2.5 -2.5 63
    endloop
  endfacet
  facet normal 0 1 0
    outer loop
      vertex -2.5 -2.5 63
      vertex 2.5 -2.5 60
      vertex -2.5 -2.5 60
    endloop
  endfacet
  facet normal 0 -1 0
    outer loop
      vertex -2.5 2.5 60
      vertex 2.5 2.5 63
      vertex -2.5 2.5 63
    endloop
  endfacet
  facet normal 0 -1 -0
    outer loop
      vertex 2.5 2.5 63
      vertex -2.5 2.5 60
      vertex 2.5 2.5 60
    endloop
  endfacet
endsolid OpenSCAD_Model
