solid OpenSCAD_Model
  facet normal 1 -0 0
    outer loop
      vertex 25 -25 0
      vertex 25 25 -10
      vertex 25 25 0
    endloop
  endfacet
  facet normal 1 0 0
    outer loop
      vertex 25 25 -10
      vertex 25 -25 0
      vertex 25 -25 -10
    endloop
  endfacet
  facet normal 0 0 1
    outer loop
      vertex -5.16831 1.88111 0
      vertex -17.5 15 0
      vertex -5.5 0 0
    endloop
  endfacet
  facet normal 0 0 1
    outer loop
      vertex -5.5 0 0
      vertex -15.7322 -15.7322 0
      vertex -15 -17.5 0
    endloop
  endfacet
  facet normal 0 0 1
    outer loop
      vertex -17.5 -15 0
      vertex -5.5 0 0
      vertex -17.5 15 0
    endloop
  endfacet
  facet normal 0 0 1
    outer loop
      vertex -5.5 0 0
      vertex -17.5 -15 0
      vertex -15.7322 -15.7322 0
    endloop
  endfacet
  facet normal 0 0 1
    outer loop
      vertex -19.2678 15.7322 0
      vertex -17.5 -15 0
      vertex -17.5 15 0
    endloop
  endfacet
  facet normal 0 0 1
    outer loop
      vertex -19.2678 15.7322 0
      vertex -19.2678 -15.7322 0
      vertex -17.5 -15 0
    endloop
  endfacet
  facet normal 0 0 1
    outer loop
      vertex -25 25 0
      vertex -19.2678 15.7322 0
      vertex -20 17.5 0
    endloop
  endfacet
  facet normal 0 0 1
    outer loop
      vertex -19.2678 15.7322 0
      vertex -25 25 0
      vertex -19.2678 -15.7322 0
    endloop
  endfacet
  facet normal -0 0 1
    outer loop
      vertex 19.2678 -15.7322 0
      vertex 25 -25 0
      vertex 19.2678 15.7322 0
    endloop
  endfacet
  facet normal 0 0 1
    outer loop
      vertex 25 -25 0
      vertex 19.2678 -15.7322 0
      vertex 20 -17.5 0
    endloop
  endfacet
  facet normal -0 0 1
    outer loop
      vertex 17.5 15 0
      vertex 19.2678 -15.7322 0
      vertex 19.2678 15.7322 0
    endloop
  endfacet
  facet normal 0 0 1
    outer loop
      vertex 17.5 15 0
      vertex 17.5 -15 0
      vertex 19.2678 -15.7322 0
    endloop
  endfacet
  facet normal 0 0 1
    outer loop
      vertex 5.16831 1.88111 0
      vertex 17.5 15 0
      vertex 15.7322 15.7322 0
    endloop
  endfacet
  facet normal 0 0 1
    outer loop
      vertex 17.5 15 0
      vertex 5.5 0 0
      vertex 17.5 -15 0
    endloop
  endfacet
  facet normal 0 0 1
    outer loop
      vertex 2.75 4.76314 0
      vertex 15.7322 15.7322 0
      vertex 15 17.5 0
    endloop
  endfacet
  facet normal -0 0 1
    outer loop
      vertex 5.16831 -1.88111 0
      vertex 17.5 -15 0
      vertex 5.5 0 0
    endloop
  endfacet
  facet normal 0 0 1
    outer loop
      vertex 19.2678 15.7322 0
      vertex 25 25 0
      vertex 20 17.5 0
    endloop
  endfacet
  facet normal 0 0 1
    outer loop
      vertex 25 25 0
      vertex 19.2678 19.2678 0
      vertex 20 17.5 0
    endloop
  endfacet
  facet normal 0 0 1
    outer loop
      vertex 25 25 0
      vertex 17.5 20 0
      vertex 19.2678 19.2678 0
    endloop
  endfacet
  facet normal 0 0 1
    outer loop
      vertex 25 25 0
      vertex 15.7322 19.2678 0
      vertex 17.5 20 0
    endloop
  endfacet
  facet normal 0 0 1
    outer loop
      vertex 17.5 -15 0
      vertex 5.16831 -1.88111 0
      vertex 15.7322 -15.7322 0
    endloop
  endfacet
  facet normal 0 0 1
    outer loop
      vertex -15 17.5 0
      vertex 15 17.5 0
      vertex 15.7322 19.2678 0
    endloop
  endfacet
  facet normal 0 0 1
    outer loop
      vertex 17.5 15 0
      vertex 5.16831 1.88111 0
      vertex 5.5 0 0
    endloop
  endfacet
  facet normal 0 0 1
    outer loop
      vertex 15.7322 15.7322 0
      vertex 4.21324 3.53533 0
      vertex 5.16831 1.88111 0
    endloop
  endfacet
  facet normal 0 0 1
    outer loop
      vertex 15.7322 15.7322 0
      vertex 2.75 4.76314 0
      vertex 4.21324 3.53533 0
    endloop
  endfacet
  facet normal 0 0 1
    outer loop
      vertex 15 17.5 0
      vertex 0.955065 5.41644 0
      vertex 2.75 4.76314 0
    endloop
  endfacet
  facet normal 0 0 1
    outer loop
      vertex 15 17.5 0
      vertex -15 17.5 0
      vertex 0.955065 5.41644 0
    endloop
  endfacet
  facet normal 0 0 1
    outer loop
      vertex 0.955065 5.41644 0
      vertex -15 17.5 0
      vertex -0.955065 5.41644 0
    endloop
  endfacet
  facet normal 0 0 1
    outer loop
      vertex -4.21324 3.53533 0
      vertex -15.7322 15.7322 0
      vertex -5.16831 1.88111 0
    endloop
  endfacet
  facet normal 0 0 1
    outer loop
      vertex -2.75 4.76314 0
      vertex -15.7322 15.7322 0
      vertex -4.21324 3.53533 0
    endloop
  endfacet
  facet normal -0 0 1
    outer loop
      vertex -15.7322 15.7322 0
      vertex -2.75 4.76314 0
      vertex -15 17.5 0
    endloop
  endfacet
  facet normal 0 0 1
    outer loop
      vertex -0.955065 5.41644 0
      vertex -15 17.5 0
      vertex -2.75 4.76314 0
    endloop
  endfacet
  facet normal 0 0 1
    outer loop
      vertex -15.7322 19.2678 0
      vertex 15.7322 19.2678 0
      vertex 25 25 0
    endloop
  endfacet
  facet normal 0 0 1
    outer loop
      vertex 15.7322 19.2678 0
      vertex -15.7322 19.2678 0
      vertex -15 17.5 0
    endloop
  endfacet
  facet normal -0 0 1
    outer loop
      vertex -25 25 0
      vertex -15.7322 19.2678 0
      vertex 25 25 0
    endloop
  endfacet
  facet normal 0 0 1
    outer loop
      vertex -25 -25 0
      vertex -19.2678 -15.7322 0
      vertex -25 25 0
    endloop
  endfacet
  facet normal 0 0 1
    outer loop
      vertex -19.2678 19.2678 0
      vertex -25 25 0
      vertex -20 17.5 0
    endloop
  endfacet
  facet normal 0 0 1
    outer loop
      vertex -17.5 20 0
      vertex -25 25 0
      vertex -19.2678 19.2678 0
    endloop
  endfacet
  facet normal 0 0 1
    outer loop
      vertex -15.7322 19.2678 0
      vertex -25 25 0
      vertex -17.5 20 0
    endloop
  endfacet
  facet normal 0 0 1
    outer loop
      vertex 25 25 0
      vertex 19.2678 15.7322 0
      vertex 25 -25 0
    endloop
  endfacet
  facet normal -0 0 1
    outer loop
      vertex 19.2678 -19.2678 0
      vertex 25 -25 0
      vertex 20 -17.5 0
    endloop
  endfacet
  facet normal -0 0 1
    outer loop
      vertex 17.5 -20 0
      vertex 25 -25 0
      vertex 19.2678 -19.2678 0
    endloop
  endfacet
  facet normal 0 0 1
    outer loop
      vertex 15.7322 -19.2678 0
      vertex 25 -25 0
      vertex 17.5 -20 0
    endloop
  endfacet
  facet normal -0 0 1
    outer loop
      vertex 4.21324 -3.53533 0
      vertex 15.7322 -15.7322 0
      vertex 5.16831 -1.88111 0
    endloop
  endfacet
  facet normal -0 0 1
    outer loop
      vertex 2.75 -4.76314 0
      vertex 15.7322 -15.7322 0
      vertex 4.21324 -3.53533 0
    endloop
  endfacet
  facet normal 0 0 1
    outer loop
      vertex 15.7322 -15.7322 0
      vertex 2.75 -4.76314 0
      vertex 15 -17.5 0
    endloop
  endfacet
  facet normal -0 0 1
    outer loop
      vertex 0.955065 -5.41644 0
      vertex 15 -17.5 0
      vertex 2.75 -4.76314 0
    endloop
  endfacet
  facet normal 0 0 1
    outer loop
      vertex -15 -17.5 0
      vertex 15 -17.5 0
      vertex 0.955065 -5.41644 0
    endloop
  endfacet
  facet normal 0 0 1
    outer loop
      vertex -15 -17.5 0
      vertex 0.955065 -5.41644 0
      vertex -0.955065 -5.41644 0
    endloop
  endfacet
  facet normal 0 0 1
    outer loop
      vertex -15 -17.5 0
      vertex -0.955065 -5.41644 0
      vertex -2.75 -4.76314 0
    endloop
  endfacet
  facet normal -0 0 1
    outer loop
      vertex -17.5 15 0
      vertex -5.16831 1.88111 0
      vertex -15.7322 15.7322 0
    endloop
  endfacet
  facet normal 0 0 1
    outer loop
      vertex -5.5 0 0
      vertex -15 -17.5 0
      vertex -5.16831 -1.88111 0
    endloop
  endfacet
  facet normal 0 0 1
    outer loop
      vertex -15 -17.5 0
      vertex -4.21324 -3.53533 0
      vertex -5.16831 -1.88111 0
    endloop
  endfacet
  facet normal 0 0 1
    outer loop
      vertex -15 -17.5 0
      vertex -2.75 -4.76314 0
      vertex -4.21324 -3.53533 0
    endloop
  endfacet
  facet normal 0 0 1
    outer loop
      vertex 15 -17.5 0
      vertex -15 -17.5 0
      vertex 15.7322 -19.2678 0
    endloop
  endfacet
  facet normal 0 0 1
    outer loop
      vertex -15.7322 -19.2678 0
      vertex 15.7322 -19.2678 0
      vertex -15 -17.5 0
    endloop
  endfacet
  facet normal 0 0 1
    outer loop
      vertex 15.7322 -19.2678 0
      vertex -15.7322 -19.2678 0
      vertex 25 -25 0
    endloop
  endfacet
  facet normal 0 0 1
    outer loop
      vertex -25 -25 0
      vertex -15.7322 -19.2678 0
      vertex -17.5 -20 0
    endloop
  endfacet
  facet normal 0 0 1
    outer loop
      vertex -15.7322 -19.2678 0
      vertex -25 -25 0
      vertex 25 -25 0
    endloop
  endfacet
  facet normal 0 0 1
    outer loop
      vertex -19.2678 -19.2678 0
      vertex -25 -25 0
      vertex -17.5 -20 0
    endloop
  endfacet
  facet normal 0 0 1
    outer loop
      vertex -20 -17.5 0
      vertex -25 -25 0
      vertex -19.2678 -19.2678 0
    endloop
  endfacet
  facet normal 0 0 1
    outer loop
      vertex -19.2678 -15.7322 0
      vertex -25 -25 0
      vertex -20 -17.5 0
    endloop
  endfacet
  facet normal -0 0 -1
    outer loop
      vertex -5.16831 -1.88111 -10
      vertex -17.5 -15 -10
      vertex -5.5 0 -10
    endloop
  endfacet
  facet normal 0 0 -1
    outer loop
      vertex -5.5 0 -10
      vertex -15.7322 15.7322 -10
      vertex -15 17.5 -10
    endloop
  endfacet
  facet normal 0 0 -1
    outer loop
      vertex -17.5 15 -10
      vertex -5.5 0 -10
      vertex -17.5 -15 -10
    endloop
  endfacet
  facet normal 0 0 -1
    outer loop
      vertex -5.5 0 -10
      vertex -17.5 15 -10
      vertex -15.7322 15.7322 -10
    endloop
  endfacet
  facet normal 0 0 -1
    outer loop
      vertex -19.2678 -15.7322 -10
      vertex -17.5 15 -10
      vertex -17.5 -15 -10
    endloop
  endfacet
  facet normal 0 0 -1
    outer loop
      vertex -19.2678 -15.7322 -10
      vertex -19.2678 15.7322 -10
      vertex -17.5 15 -10
    endloop
  endfacet
  facet normal 0 0 -1
    outer loop
      vertex -25 -25 -10
      vertex -19.2678 -15.7322 -10
      vertex -20 -17.5 -10
    endloop
  endfacet
  facet normal -0 0 -1
    outer loop
      vertex -19.2678 -15.7322 -10
      vertex -25 -25 -10
      vertex -19.2678 15.7322 -10
    endloop
  endfacet
  facet normal 0 0 -1
    outer loop
      vertex 19.2678 15.7322 -10
      vertex 25 25 -10
      vertex 19.2678 -15.7322 -10
    endloop
  endfacet
  facet normal 0 0 -1
    outer loop
      vertex 25 25 -10
      vertex 19.2678 15.7322 -10
      vertex 20 17.5 -10
    endloop
  endfacet
  facet normal 0 0 -1
    outer loop
      vertex 17.5 -15 -10
      vertex 19.2678 15.7322 -10
      vertex 19.2678 -15.7322 -10
    endloop
  endfacet
  facet normal 0 0 -1
    outer loop
      vertex 17.5 -15 -10
      vertex 17.5 15 -10
      vertex 19.2678 15.7322 -10
    endloop
  endfacet
  facet normal 0 0 -1
    outer loop
      vertex 5.16831 -1.88111 -10
      vertex 17.5 -15 -10
      vertex 15.7322 -15.7322 -10
    endloop
  endfacet
  facet normal 0 0 -1
    outer loop
      vertex 17.5 -15 -10
      vertex 5.5 0 -10
      vertex 17.5 15 -10
    endloop
  endfacet
  facet normal 0 0 -1
    outer loop
      vertex 2.75 -4.76314 -10
      vertex 15.7322 -15.7322 -10
      vertex 15 -17.5 -10
    endloop
  endfacet
  facet normal 0 0 -1
    outer loop
      vertex 5.16831 1.88111 -10
      vertex 17.5 15 -10
      vertex 5.5 0 -10
    endloop
  endfacet
  facet normal 0 0 -1
    outer loop
      vertex 19.2678 -15.7322 -10
      vertex 25 -25 -10
      vertex 20 -17.5 -10
    endloop
  endfacet
  facet normal 0 0 -1
    outer loop
      vertex 25 -25 -10
      vertex 19.2678 -19.2678 -10
      vertex 20 -17.5 -10
    endloop
  endfacet
  facet normal 0 0 -1
    outer loop
      vertex 25 -25 -10
      vertex 17.5 -20 -10
      vertex 19.2678 -19.2678 -10
    endloop
  endfacet
  facet normal 0 0 -1
    outer loop
      vertex 25 -25 -10
      vertex 15.7322 -19.2678 -10
      vertex 17.5 -20 -10
    endloop
  endfacet
  facet normal -0 0 -1
    outer loop
      vertex 17.5 15 -10
      vertex 5.16831 1.88111 -10
      vertex 15.7322 15.7322 -10
    endloop
  endfacet
  facet normal 0 0 -1
    outer loop
      vertex -15 -17.5 -10
      vertex 15 -17.5 -10
      vertex 15.7322 -19.2678 -10
    endloop
  endfacet
  facet normal 0 0 -1
    outer loop
      vertex 17.5 -15 -10
      vertex 5.16831 -1.88111 -10
      vertex 5.5 0 -10
    endloop
  endfacet
  facet normal 0 0 -1
    outer loop
      vertex 15.7322 -15.7322 -10
      vertex 4.21324 -3.53533 -10
      vertex 5.16831 -1.88111 -10
    endloop
  endfacet
  facet normal 0 0 -1
    outer loop
      vertex 15.7322 -15.7322 -10
      vertex 2.75 -4.76314 -10
      vertex 4.21324 -3.53533 -10
    endloop
  endfacet
  facet normal 0 0 -1
    outer loop
      vertex 15 -17.5 -10
      vertex 0.955065 -5.41644 -10
      vertex 2.75 -4.76314 -10
    endloop
  endfacet
  facet normal 0 0 -1
    outer loop
      vertex 15 -17.5 -10
      vertex -15 -17.5 -10
      vertex 0.955065 -5.41644 -10
    endloop
  endfacet
  facet normal -0 0 -1
    outer loop
      vertex 0.955065 -5.41644 -10
      vertex -15 -17.5 -10
      vertex -0.955065 -5.41644 -10
    endloop
  endfacet
  facet normal -0 0 -1
    outer loop
      vertex -4.21324 -3.53533 -10
      vertex -15.7322 -15.7322 -10
      vertex -5.16831 -1.88111 -10
    endloop
  endfacet
  facet normal -0 0 -1
    outer loop
      vertex -2.75 -4.76314 -10
      vertex -15.7322 -15.7322 -10
      vertex -4.21324 -3.53533 -10
    endloop
  endfacet
  facet normal 0 0 -1
    outer loop
      vertex -15.7322 -15.7322 -10
      vertex -2.75 -4.76314 -10
      vertex -15 -17.5 -10
    endloop
  endfacet
  facet normal -0 0 -1
    outer loop
      vertex -0.955065 -5.41644 -10
      vertex -15 -17.5 -10
      vertex -2.75 -4.76314 -10
    endloop
  endfacet
  facet normal 0 0 -1
    outer loop
      vertex -15.7322 -19.2678 -10
      vertex 15.7322 -19.2678 -10
      vertex 25 -25 -10
    endloop
  endfacet
  facet normal 0 0 -1
    outer loop
      vertex 15.7322 -19.2678 -10
      vertex -15.7322 -19.2678 -10
      vertex -15 -17.5 -10
    endloop
  endfacet
  facet normal 0 0 -1
    outer loop
      vertex -25 -25 -10
      vertex -15.7322 -19.2678 -10
      vertex 25 -25 -10
    endloop
  endfacet
  facet normal 0 0 -1
    outer loop
      vertex -25 25 -10
      vertex -19.2678 15.7322 -10
      vertex -25 -25 -10
    endloop
  endfacet
  facet normal -0 0 -1
    outer loop
      vertex -19.2678 -19.2678 -10
      vertex -25 -25 -10
      vertex -20 -17.5 -10
    endloop
  endfacet
  facet normal -0 0 -1
    outer loop
      vertex -17.5 -20 -10
      vertex -25 -25 -10
      vertex -19.2678 -19.2678 -10
    endloop
  endfacet
  facet normal 0 0 -1
    outer loop
      vertex -15.7322 -19.2678 -10
      vertex -25 -25 -10
      vertex -17.5 -20 -10
    endloop
  endfacet
  facet normal 0 0 -1
    outer loop
      vertex 25 -25 -10
      vertex 19.2678 -15.7322 -10
      vertex 25 25 -10
    endloop
  endfacet
  facet normal 0 0 -1
    outer loop
      vertex 19.2678 19.2678 -10
      vertex 25 25 -10
      vertex 20 17.5 -10
    endloop
  endfacet
  facet normal 0 0 -1
    outer loop
      vertex 17.5 20 -10
      vertex 25 25 -10
      vertex 19.2678 19.2678 -10
    endloop
  endfacet
  facet normal 0 0 -1
    outer loop
      vertex 15.7322 19.2678 -10
      vertex 25 25 -10
      vertex 17.5 20 -10
    endloop
  endfacet
  facet normal 0 0 -1
    outer loop
      vertex 4.21324 3.53533 -10
      vertex 15.7322 15.7322 -10
      vertex 5.16831 1.88111 -10
    endloop
  endfacet
  facet normal 0 0 -1
    outer loop
      vertex 2.75 4.76314 -10
      vertex 15.7322 15.7322 -10
      vertex 4.21324 3.53533 -10
    endloop
  endfacet
  facet normal -0 0 -1
    outer loop
      vertex 15.7322 15.7322 -10
      vertex 2.75 4.76314 -10
      vertex 15 17.5 -10
    endloop
  endfacet
  facet normal 0 0 -1
    outer loop
      vertex 0.955065 5.41644 -10
      vertex 15 17.5 -10
      vertex 2.75 4.76314 -10
    endloop
  endfacet
  facet normal 0 0 -1
    outer loop
      vertex -15 17.5 -10
      vertex 15 17.5 -10
      vertex 0.955065 5.41644 -10
    endloop
  endfacet
  facet normal 0 0 -1
    outer loop
      vertex -15 17.5 -10
      vertex 0.955065 5.41644 -10
      vertex -0.955065 5.41644 -10
    endloop
  endfacet
  facet normal 0 0 -1
    outer loop
      vertex -15 17.5 -10
      vertex -0.955065 5.41644 -10
      vertex -2.75 4.76314 -10
    endloop
  endfacet
  facet normal 0 0 -1
    outer loop
      vertex -17.5 -15 -10
      vertex -5.16831 -1.88111 -10
      vertex -15.7322 -15.7322 -10
    endloop
  endfacet
  facet normal 0 0 -1
    outer loop
      vertex -5.5 0 -10
      vertex -15 17.5 -10
      vertex -5.16831 1.88111 -10
    endloop
  endfacet
  facet normal 0 0 -1
    outer loop
      vertex -15 17.5 -10
      vertex -4.21324 3.53533 -10
      vertex -5.16831 1.88111 -10
    endloop
  endfacet
  facet normal 0 0 -1
    outer loop
      vertex -15 17.5 -10
      vertex -2.75 4.76314 -10
      vertex -4.21324 3.53533 -10
    endloop
  endfacet
  facet normal 0 0 -1
    outer loop
      vertex 15 17.5 -10
      vertex -15 17.5 -10
      vertex 15.7322 19.2678 -10
    endloop
  endfacet
  facet normal 0 0 -1
    outer loop
      vertex -15.7322 19.2678 -10
      vertex 15.7322 19.2678 -10
      vertex -15 17.5 -10
    endloop
  endfacet
  facet normal 0 0 -1
    outer loop
      vertex 15.7322 19.2678 -10
      vertex -15.7322 19.2678 -10
      vertex 25 25 -10
    endloop
  endfacet
  facet normal 0 0 -1
    outer loop
      vertex -25 25 -10
      vertex -15.7322 19.2678 -10
      vertex -17.5 20 -10
    endloop
  endfacet
  facet normal 0 0 -1
    outer loop
      vertex -15.7322 19.2678 -10
      vertex -25 25 -10
      vertex 25 25 -10
    endloop
  endfacet
  facet normal 0 0 -1
    outer loop
      vertex -19.2678 19.2678 -10
      vertex -25 25 -10
      vertex -17.5 20 -10
    endloop
  endfacet
  facet normal 0 0 -1
    outer loop
      vertex -20 17.5 -10
      vertex -25 25 -10
      vertex -19.2678 19.2678 -10
    endloop
  endfacet
  facet normal 0 0 -1
    outer loop
      vertex -19.2678 15.7322 -10
      vertex -25 25 -10
      vertex -20 17.5 -10
    endloop
  endfacet
  facet normal -1 0 0
    outer loop
      vertex -25 -25 -10
      vertex -25 25 0
      vertex -25 25 -10
    endloop
  endfacet
  facet normal -1 -0 0
    outer loop
      vertex -25 25 0
      vertex -25 -25 -10
      vertex -25 -25 0
    endloop
  endfacet
  facet normal 0 1 -0
    outer loop
      vertex 25 25 -10
      vertex -25 25 0
      vertex 25 25 0
    endloop
  endfacet
  facet normal 0 1 0
    outer loop
      vertex -25 25 0
      vertex 25 25 -10
      vertex -25 25 -10
    endloop
  endfacet
  facet normal 0 -1 0
    outer loop
      vertex -25 -25 -10
      vertex 25 -25 0
      vertex -25 -25 0
    endloop
  endfacet
  facet normal 0 -1 -0
    outer loop
      vertex 25 -25 0
      vertex -25 -25 -10
      vertex 25 -25 -10
    endloop
  endfacet
  facet normal -0.866024 -0.500002 0
    outer loop
      vertex 5.16831 1.88111 -10
      vertex 4.21324 3.53533 0
      vertex 4.21324 3.53533 -10
    endloop
  endfacet
  facet normal -0.866024 -0.500002 0
    outer loop
      vertex 4.21324 3.53533 0
      vertex 5.16831 1.88111 -10
      vertex 5.16831 1.88111 0
    endloop
  endfacet
  facet normal -0.984808 -0.173648 0
    outer loop
      vertex 5.5 0 -10
      vertex 5.16831 1.88111 0
      vertex 5.16831 1.88111 -10
    endloop
  endfacet
  facet normal -0.984808 -0.173648 0
    outer loop
      vertex 5.16831 1.88111 0
      vertex 5.5 0 -10
      vertex 5.5 0 0
    endloop
  endfacet
  facet normal -0.642789 -0.766043 0
    outer loop
      vertex 2.75 4.76314 -10
      vertex 4.21324 3.53533 0
      vertex 2.75 4.76314 0
    endloop
  endfacet
  facet normal -0.642789 -0.766043 -0
    outer loop
      vertex 4.21324 3.53533 0
      vertex 2.75 4.76314 -10
      vertex 4.21324 3.53533 -10
    endloop
  endfacet
  facet normal 0.984808 -0.173648 0
    outer loop
      vertex -5.5 0 0
      vertex -5.16831 1.88111 -10
      vertex -5.16831 1.88111 0
    endloop
  endfacet
  facet normal 0.984808 -0.173648 0
    outer loop
      vertex -5.16831 1.88111 -10
      vertex -5.5 0 0
      vertex -5.5 0 -10
    endloop
  endfacet
  facet normal 0.642789 -0.766043 0
    outer loop
      vertex -4.21324 3.53533 -10
      vertex -2.75 4.76314 0
      vertex -4.21324 3.53533 0
    endloop
  endfacet
  facet normal 0.642789 -0.766043 0
    outer loop
      vertex -2.75 4.76314 0
      vertex -4.21324 3.53533 -10
      vertex -2.75 4.76314 -10
    endloop
  endfacet
  facet normal 0.342019 0.939693 -0
    outer loop
      vertex -0.955065 -5.41644 -10
      vertex -2.75 -4.76314 0
      vertex -0.955065 -5.41644 0
    endloop
  endfacet
  facet normal 0.342019 0.939693 0
    outer loop
      vertex -2.75 -4.76314 0
      vertex -0.955065 -5.41644 -10
      vertex -2.75 -4.76314 -10
    endloop
  endfacet
  facet normal 0 -1 0
    outer loop
      vertex -0.955065 5.41644 -10
      vertex 0.955065 5.41644 0
      vertex -0.955065 5.41644 0
    endloop
  endfacet
  facet normal 0 -1 -0
    outer loop
      vertex 0.955065 5.41644 0
      vertex -0.955065 5.41644 -10
      vertex 0.955065 5.41644 -10
    endloop
  endfacet
  facet normal -0.342019 -0.939693 0
    outer loop
      vertex 0.955065 5.41644 -10
      vertex 2.75 4.76314 0
      vertex 0.955065 5.41644 0
    endloop
  endfacet
  facet normal -0.342019 -0.939693 -0
    outer loop
      vertex 2.75 4.76314 0
      vertex 0.955065 5.41644 -10
      vertex 2.75 4.76314 -10
    endloop
  endfacet
  facet normal -0.984808 0.173648 0
    outer loop
      vertex 5.16831 -1.88111 -10
      vertex 5.5 0 0
      vertex 5.5 0 -10
    endloop
  endfacet
  facet normal -0.984808 0.173648 0
    outer loop
      vertex 5.5 0 0
      vertex 5.16831 -1.88111 -10
      vertex 5.16831 -1.88111 0
    endloop
  endfacet
  facet normal 0.984808 0.173648 0
    outer loop
      vertex -5.16831 -1.88111 0
      vertex -5.5 0 -10
      vertex -5.5 0 0
    endloop
  endfacet
  facet normal 0.984808 0.173648 0
    outer loop
      vertex -5.5 0 -10
      vertex -5.16831 -1.88111 0
      vertex -5.16831 -1.88111 -10
    endloop
  endfacet
  facet normal -0.866024 0.500002 0
    outer loop
      vertex 4.21324 -3.53533 -10
      vertex 5.16831 -1.88111 0
      vertex 5.16831 -1.88111 -10
    endloop
  endfacet
  facet normal -0.866024 0.500002 0
    outer loop
      vertex 5.16831 -1.88111 0
      vertex 4.21324 -3.53533 -10
      vertex 4.21324 -3.53533 0
    endloop
  endfacet
  facet normal 0.642789 0.766043 -0
    outer loop
      vertex -2.75 -4.76314 -10
      vertex -4.21324 -3.53533 0
      vertex -2.75 -4.76314 0
    endloop
  endfacet
  facet normal 0.642789 0.766043 0
    outer loop
      vertex -4.21324 -3.53533 0
      vertex -2.75 -4.76314 -10
      vertex -4.21324 -3.53533 -10
    endloop
  endfacet
  facet normal -0.642789 0.766043 0
    outer loop
      vertex 4.21324 -3.53533 -10
      vertex 2.75 -4.76314 0
      vertex 4.21324 -3.53533 0
    endloop
  endfacet
  facet normal -0.642789 0.766043 0
    outer loop
      vertex 2.75 -4.76314 0
      vertex 4.21324 -3.53533 -10
      vertex 2.75 -4.76314 -10
    endloop
  endfacet
  facet normal -0.342019 0.939693 0
    outer loop
      vertex 2.75 -4.76314 -10
      vertex 0.955065 -5.41644 0
      vertex 2.75 -4.76314 0
    endloop
  endfacet
  facet normal -0.342019 0.939693 0
    outer loop
      vertex 0.955065 -5.41644 0
      vertex 2.75 -4.76314 -10
      vertex 0.955065 -5.41644 -10
    endloop
  endfacet
  facet normal 0.342019 -0.939693 0
    outer loop
      vertex -2.75 4.76314 -10
      vertex -0.955065 5.41644 0
      vertex -2.75 4.76314 0
    endloop
  endfacet
  facet normal 0.342019 -0.939693 0
    outer loop
      vertex -0.955065 5.41644 0
      vertex -2.75 4.76314 -10
      vertex -0.955065 5.41644 -10
    endloop
  endfacet
  facet normal 0.866024 -0.500002 0
    outer loop
      vertex -5.16831 1.88111 0
      vertex -4.21324 3.53533 -10
      vertex -4.21324 3.53533 0
    endloop
  endfacet
  facet normal 0.866024 -0.500002 0
    outer loop
      vertex -4.21324 3.53533 -10
      vertex -5.16831 1.88111 0
      vertex -5.16831 1.88111 -10
    endloop
  endfacet
  facet normal 0.866024 0.500002 0
    outer loop
      vertex -4.21324 -3.53533 0
      vertex -5.16831 -1.88111 -10
      vertex -5.16831 -1.88111 0
    endloop
  endfacet
  facet normal 0.866024 0.500002 0
    outer loop
      vertex -5.16831 -1.88111 -10
      vertex -4.21324 -3.53533 0
      vertex -4.21324 -3.53533 -10
    endloop
  endfacet
  facet normal 0 1 -0
    outer loop
      vertex 0.955065 -5.41644 -10
      vertex -0.955065 -5.41644 0
      vertex 0.955065 -5.41644 0
    endloop
  endfacet
  facet normal 0 1 0
    outer loop
      vertex -0.955065 -5.41644 0
      vertex 0.955065 -5.41644 -10
      vertex -0.955065 -5.41644 -10
    endloop
  endfacet
  facet normal -0.382663 -0.923888 0
    outer loop
      vertex -17.5 -15 -10
      vertex -15.7322 -15.7322 0
      vertex -17.5 -15 0
    endloop
  endfacet
  facet normal -0.382663 -0.923888 -0
    outer loop
      vertex -15.7322 -15.7322 0
      vertex -17.5 -15 -10
      vertex -15.7322 -15.7322 -10
    endloop
  endfacet
  facet normal -0.923888 -0.382663 0
    outer loop
      vertex -15 -17.5 -10
      vertex -15.7322 -15.7322 0
      vertex -15.7322 -15.7322 -10
    endloop
  endfacet
  facet normal -0.923888 -0.382663 0
    outer loop
      vertex -15.7322 -15.7322 0
      vertex -15 -17.5 -10
      vertex -15 -17.5 0
    endloop
  endfacet
  facet normal 0.382663 -0.923888 0
    outer loop
      vertex -19.2678 -15.7322 -10
      vertex -17.5 -15 0
      vertex -19.2678 -15.7322 0
    endloop
  endfacet
  facet normal 0.382663 -0.923888 0
    outer loop
      vertex -17.5 -15 0
      vertex -19.2678 -15.7322 -10
      vertex -17.5 -15 -10
    endloop
  endfacet
  facet normal 0.923888 -0.382663 0
    outer loop
      vertex -20 -17.5 0
      vertex -19.2678 -15.7322 -10
      vertex -19.2678 -15.7322 0
    endloop
  endfacet
  facet normal 0.923888 -0.382663 0
    outer loop
      vertex -19.2678 -15.7322 -10
      vertex -20 -17.5 0
      vertex -20 -17.5 -10
    endloop
  endfacet
  facet normal -0.382663 0.923888 0
    outer loop
      vertex -15.7322 -19.2678 -10
      vertex -17.5 -20 0
      vertex -15.7322 -19.2678 0
    endloop
  endfacet
  facet normal -0.382663 0.923888 0
    outer loop
      vertex -17.5 -20 0
      vertex -15.7322 -19.2678 -10
      vertex -17.5 -20 -10
    endloop
  endfacet
  facet normal 0.923888 0.382663 0
    outer loop
      vertex -19.2678 -19.2678 0
      vertex -20 -17.5 -10
      vertex -20 -17.5 0
    endloop
  endfacet
  facet normal 0.923888 0.382663 0
    outer loop
      vertex -20 -17.5 -10
      vertex -19.2678 -19.2678 0
      vertex -19.2678 -19.2678 -10
    endloop
  endfacet
  facet normal -0.923888 0.382663 0
    outer loop
      vertex -15.7322 -19.2678 -10
      vertex -15 -17.5 0
      vertex -15 -17.5 -10
    endloop
  endfacet
  facet normal -0.923888 0.382663 0
    outer loop
      vertex -15 -17.5 0
      vertex -15.7322 -19.2678 -10
      vertex -15.7322 -19.2678 0
    endloop
  endfacet
  facet normal 0.382663 0.923888 -0
    outer loop
      vertex -17.5 -20 -10
      vertex -19.2678 -19.2678 0
      vertex -17.5 -20 0
    endloop
  endfacet
  facet normal 0.382663 0.923888 0
    outer loop
      vertex -19.2678 -19.2678 0
      vertex -17.5 -20 -10
      vertex -19.2678 -19.2678 -10
    endloop
  endfacet
  facet normal -0.382663 -0.923888 0
    outer loop
      vertex 17.5 -15 -10
      vertex 19.2678 -15.7322 0
      vertex 17.5 -15 0
    endloop
  endfacet
  facet normal -0.382663 -0.923888 -0
    outer loop
      vertex 19.2678 -15.7322 0
      vertex 17.5 -15 -10
      vertex 19.2678 -15.7322 -10
    endloop
  endfacet
  facet normal -0.923888 -0.382663 0
    outer loop
      vertex 20 -17.5 -10
      vertex 19.2678 -15.7322 0
      vertex 19.2678 -15.7322 -10
    endloop
  endfacet
  facet normal -0.923888 -0.382663 0
    outer loop
      vertex 19.2678 -15.7322 0
      vertex 20 -17.5 -10
      vertex 20 -17.5 0
    endloop
  endfacet
  facet normal 0.382663 -0.923888 0
    outer loop
      vertex 15.7322 -15.7322 -10
      vertex 17.5 -15 0
      vertex 15.7322 -15.7322 0
    endloop
  endfacet
  facet normal 0.382663 -0.923888 0
    outer loop
      vertex 17.5 -15 0
      vertex 15.7322 -15.7322 -10
      vertex 17.5 -15 -10
    endloop
  endfacet
  facet normal -0.923888 0.382663 0
    outer loop
      vertex 19.2678 -19.2678 -10
      vertex 20 -17.5 0
      vertex 20 -17.5 -10
    endloop
  endfacet
  facet normal -0.923888 0.382663 0
    outer loop
      vertex 20 -17.5 0
      vertex 19.2678 -19.2678 -10
      vertex 19.2678 -19.2678 0
    endloop
  endfacet
  facet normal 0.923888 -0.382663 0
    outer loop
      vertex 15 -17.5 0
      vertex 15.7322 -15.7322 -10
      vertex 15.7322 -15.7322 0
    endloop
  endfacet
  facet normal 0.923888 -0.382663 0
    outer loop
      vertex 15.7322 -15.7322 -10
      vertex 15 -17.5 0
      vertex 15 -17.5 -10
    endloop
  endfacet
  facet normal 0.382663 0.923888 -0
    outer loop
      vertex 17.5 -20 -10
      vertex 15.7322 -19.2678 0
      vertex 17.5 -20 0
    endloop
  endfacet
  facet normal 0.382663 0.923888 0
    outer loop
      vertex 15.7322 -19.2678 0
      vertex 17.5 -20 -10
      vertex 15.7322 -19.2678 -10
    endloop
  endfacet
  facet normal -0.382663 0.923888 0
    outer loop
      vertex 19.2678 -19.2678 -10
      vertex 17.5 -20 0
      vertex 19.2678 -19.2678 0
    endloop
  endfacet
  facet normal -0.382663 0.923888 0
    outer loop
      vertex 17.5 -20 0
      vertex 19.2678 -19.2678 -10
      vertex 17.5 -20 -10
    endloop
  endfacet
  facet normal 0.923888 0.382663 0
    outer loop
      vertex 15.7322 -19.2678 0
      vertex 15 -17.5 -10
      vertex 15 -17.5 0
    endloop
  endfacet
  facet normal 0.923888 0.382663 0
    outer loop
      vertex 15 -17.5 -10
      vertex 15.7322 -19.2678 0
      vertex 15.7322 -19.2678 -10
    endloop
  endfacet
  facet normal 0.923888 0.382663 0
    outer loop
      vertex -19.2678 15.7322 0
      vertex -20 17.5 -10
      vertex -20 17.5 0
    endloop
  endfacet
  facet normal 0.923888 0.382663 0
    outer loop
      vertex -20 17.5 -10
      vertex -19.2678 15.7322 0
      vertex -19.2678 15.7322 -10
    endloop
  endfacet
  facet normal -0.382663 -0.923888 0
    outer loop
      vertex -17.5 20 -10
      vertex -15.7322 19.2678 0
      vertex -17.5 20 0
    endloop
  endfacet
  facet normal -0.382663 -0.923888 -0
    outer loop
      vertex -15.7322 19.2678 0
      vertex -17.5 20 -10
      vertex -15.7322 19.2678 -10
    endloop
  endfacet
  facet normal -0.923888 -0.382663 0
    outer loop
      vertex -15 17.5 -10
      vertex -15.7322 19.2678 0
      vertex -15.7322 19.2678 -10
    endloop
  endfacet
  facet normal -0.923888 -0.382663 0
    outer loop
      vertex -15.7322 19.2678 0
      vertex -15 17.5 -10
      vertex -15 17.5 0
    endloop
  endfacet
  facet normal -0.382663 0.923888 0
    outer loop
      vertex -15.7322 15.7322 -10
      vertex -17.5 15 0
      vertex -15.7322 15.7322 0
    endloop
  endfacet
  facet normal -0.382663 0.923888 0
    outer loop
      vertex -17.5 15 0
      vertex -15.7322 15.7322 -10
      vertex -17.5 15 -10
    endloop
  endfacet
  facet normal 0.923888 -0.382663 0
    outer loop
      vertex -20 17.5 0
      vertex -19.2678 19.2678 -10
      vertex -19.2678 19.2678 0
    endloop
  endfacet
  facet normal 0.923888 -0.382663 0
    outer loop
      vertex -19.2678 19.2678 -10
      vertex -20 17.5 0
      vertex -20 17.5 -10
    endloop
  endfacet
  facet normal -0.923888 0.382663 0
    outer loop
      vertex -15.7322 15.7322 -10
      vertex -15 17.5 0
      vertex -15 17.5 -10
    endloop
  endfacet
  facet normal -0.923888 0.382663 0
    outer loop
      vertex -15 17.5 0
      vertex -15.7322 15.7322 -10
      vertex -15.7322 15.7322 0
    endloop
  endfacet
  facet normal 0.382663 -0.923888 0
    outer loop
      vertex -19.2678 19.2678 -10
      vertex -17.5 20 0
      vertex -19.2678 19.2678 0
    endloop
  endfacet
  facet normal 0.382663 -0.923888 0
    outer loop
      vertex -17.5 20 0
      vertex -19.2678 19.2678 -10
      vertex -17.5 20 -10
    endloop
  endfacet
  facet normal 0.382663 0.923888 -0
    outer loop
      vertex -17.5 15 -10
      vertex -19.2678 15.7322 0
      vertex -17.5 15 0
    endloop
  endfacet
  facet normal 0.382663 0.923888 0
    outer loop
      vertex -19.2678 15.7322 0
      vertex -17.5 15 -10
      vertex -19.2678 15.7322 -10
    endloop
  endfacet
  facet normal -0.382663 -0.923888 0
    outer loop
      vertex 17.5 20 -10
      vertex 19.2678 19.2678 0
      vertex 17.5 20 0
    endloop
  endfacet
  facet normal -0.382663 -0.923888 -0
    outer loop
      vertex 19.2678 19.2678 0
      vertex 17.5 20 -10
      vertex 19.2678 19.2678 -10
    endloop
  endfacet
  facet normal -0.923888 -0.382663 0
    outer loop
      vertex 20 17.5 -10
      vertex 19.2678 19.2678 0
      vertex 19.2678 19.2678 -10
    endloop
  endfacet
  facet normal -0.923888 -0.382663 0
    outer loop
      vertex 19.2678 19.2678 0
      vertex 20 17.5 -10
      vertex 20 17.5 0
    endloop
  endfacet
  facet normal 0.382663 -0.923888 0
    outer loop
      vertex 15.7322 19.2678 -10
      vertex 17.5 20 0
      vertex 15.7322 19.2678 0
    endloop
  endfacet
  facet normal 0.382663 -0.923888 0
    outer loop
      vertex 17.5 20 0
      vertex 15.7322 19.2678 -10
      vertex 17.5 20 -10
    endloop
  endfacet
  facet normal -0.923888 0.382663 0
    outer loop
      vertex 19.2678 15.7322 -10
      vertex 20 17.5 0
      vertex 20 17.5 -10
    endloop
  endfacet
  facet normal -0.923888 0.382663 0
    outer loop
      vertex 20 17.5 0
      vertex 19.2678 15.7322 -10
      vertex 19.2678 15.7322 0
    endloop
  endfacet
  facet normal 0.923888 0.382663 0
    outer loop
      vertex 15.7322 15.7322 0
      vertex 15 17.5 -10
      vertex 15 17.5 0
    endloop
  endfacet
  facet normal 0.923888 0.382663 0
    outer loop
      vertex 15 17.5 -10
      vertex 15.7322 15.7322 0
      vertex 15.7322 15.7322 -10
    endloop
  endfacet
  facet normal 0.923888 -0.382663 0
    outer loop
      vertex 15 17.5 0
      vertex 15.7322 19.2678 -10
      vertex 15.7322 19.2678 0
    endloop
  endfacet
  facet normal 0.923888 -0.382663 0
    outer loop
      vertex 15.7322 19.2678 -10
      vertex 15 17.5 0
      vertex 15 17.5 -10
    endloop
  endfacet
  facet normal -0.382663 0.923888 0
    outer loop
      vertex 19.2678 15.7322 -10
      vertex 17.5 15 0
      vertex 19.2678 15.7322 0
    endloop
  endfacet
  facet normal -0.382663 0.923888 0
    outer loop
      vertex 17.5 15 0
      vertex 19.2678 15.7322 -10
      vertex 17.5 15 -10
    endloop
  endfacet
  facet normal 0.382663 0.923888 -0
    outer loop
      vertex 17.5 15 -10
      vertex 15.7322 15.7322 0
      vertex 17.5 15 0
    endloop
  endfacet
  facet normal 0.382663 0.923888 0
    outer loop
      vertex 15.7322 15.7322 0
      vertex 17.5 15 -10
      vertex 15.7322 15.7322 -10
    endloop
  endfacet
endsolid OpenSCAD_Model
