solid OpenSCAD_Model
  facet normal 1 -0 0
    outer loop
      vertex 12.4 -7.5 3
      vertex 12.4 7.5 -3
      vertex 12.4 7.5 3
    endloop
  endfacet
  facet normal 1 0 0
    outer loop
      vertex 12.4 7.5 -3
      vertex 12.4 -7.5 3
      vertex 12.4 -7.5 -3
    endloop
  endfacet
  facet normal 0 1 0
    outer loop
      vertex 12.4 7.5 3
      vertex 9.4 7.5 0
      vertex 9.4 7.5 3
    endloop
  endfacet
  facet normal 0 1 0
    outer loop
      vertex 9.4 7.5 0
      vertex 12.4 7.5 -3
      vertex -9.4 7.5 0
    endloop
  endfacet
  facet normal 0 1 -0
    outer loop
      vertex 12.4 7.5 -3
      vertex 9.4 7.5 0
      vertex 12.4 7.5 3
    endloop
  endfacet
  facet normal 0 1 -0
    outer loop
      vertex -9.4 7.5 0
      vertex -12.4 7.5 3
      vertex -9.4 7.5 3
    endloop
  endfacet
  facet normal 0 1 0
    outer loop
      vertex -9.4 7.5 0
      vertex -12.4 7.5 -3
      vertex -12.4 7.5 3
    endloop
  endfacet
  facet normal 0 1 0
    outer loop
      vertex -12.4 7.5 -3
      vertex -9.4 7.5 0
      vertex 12.4 7.5 -3
    endloop
  endfacet
  facet normal 0 -1 0
    outer loop
      vertex -12.4 -7.5 3
      vertex -9.4 -7.5 0
      vertex -9.4 -7.5 3
    endloop
  endfacet
  facet normal 0 -1 -0
    outer loop
      vertex -9.4 -7.5 0
      vertex -12.4 -7.5 -3
      vertex 9.4 -7.5 0
    endloop
  endfacet
  facet normal 0 -1 0
    outer loop
      vertex -12.4 -7.5 -3
      vertex -9.4 -7.5 0
      vertex -12.4 -7.5 3
    endloop
  endfacet
  facet normal 0 -1 0
    outer loop
      vertex 9.4 -7.5 0
      vertex 12.4 -7.5 3
      vertex 9.4 -7.5 3
    endloop
  endfacet
  facet normal 0 -1 0
    outer loop
      vertex 9.4 -7.5 0
      vertex 12.4 -7.5 -3
      vertex 12.4 -7.5 3
    endloop
  endfacet
  facet normal 0 -1 0
    outer loop
      vertex 12.4 -7.5 -3
      vertex 9.4 -7.5 0
      vertex -12.4 -7.5 -3
    endloop
  endfacet
  facet normal -1 0 0
    outer loop
      vertex -12.4 -7.5 -3
      vertex -12.4 7.5 3
      vertex -12.4 7.5 -3
    endloop
  endfacet
  facet normal -1 -0 0
    outer loop
      vertex -12.4 7.5 3
      vertex -12.4 -7.5 -3
      vertex -12.4 -7.5 3
    endloop
  endfacet
  facet normal 0 0 -1
    outer loop
      vertex -12.4 -7.5 -3
      vertex 12.4 7.5 -3
      vertex 12.4 -7.5 -3
    endloop
  endfacet
  facet normal -0 0 -1
    outer loop
      vertex 12.4 7.5 -3
      vertex -12.4 -7.5 -3
      vertex -12.4 7.5 -3
    endloop
  endfacet
  facet normal -0 0 1
    outer loop
      vertex -12.4 7.5 3
      vertex -9.4 -7.5 3
      vertex -9.4 7.5 3
    endloop
  endfacet
  facet normal 0 0 1
    outer loop
      vertex -9.4 -7.5 3
      vertex -12.4 7.5 3
      vertex -12.4 -7.5 3
    endloop
  endfacet
  facet normal -0 0 1
    outer loop
      vertex 9.4 7.5 3
      vertex 12.4 -7.5 3
      vertex 12.4 7.5 3
    endloop
  endfacet
  facet normal 0 0 1
    outer loop
      vertex 12.4 -7.5 3
      vertex 9.4 7.5 3
      vertex 9.4 -7.5 3
    endloop
  endfacet
  facet normal -1 0 0
    outer loop
      vertex 9.4 -7.5 0
      vertex 9.4 7.5 3
      vertex 9.4 7.5 0
    endloop
  endfacet
  facet normal -1 -0 0
    outer loop
      vertex 9.4 7.5 3
      vertex 9.4 -7.5 0
      vertex 9.4 -7.5 3
    endloop
  endfacet
  facet normal 1 -0 0
    outer loop
      vertex -9.4 -7.5 3
      vertex -9.4 7.5 0
      vertex -9.4 7.5 3
    endloop
  endfacet
  facet normal 1 0 0
    outer loop
      vertex -9.4 7.5 0
      vertex -9.4 -7.5 3
      vertex -9.4 -7.5 0
    endloop
  endfacet
  facet normal -0 0 1
    outer loop
      vertex -9.4 7.5 0
      vertex 9.4 -7.5 0
      vertex 9.4 7.5 0
    endloop
  endfacet
  facet normal 0 0 1
    outer loop
      vertex 9.4 -7.5 0
      vertex -9.4 7.5 0
      vertex -9.4 -7.5 0
    endloop
  endfacet
endsolid OpenSCAD_Model
