solid OpenSCAD_Model
  facet normal 1 -0 0
    outer loop
      vertex 80.5 0 4
      vertex 80.5 80.5 0
      vertex 80.5 80.5 4
    endloop
  endfacet
  facet normal 1 0 0
    outer loop
      vertex 80.5 80.5 0
      vertex 80.5 0 4
      vertex 80.5 0 0
    endloop
  endfacet
  facet normal 0 0 1
    outer loop
      vertex 80.5 80.5 4
      vertex 65.5 65.5 4
      vertex 80.5 0 4
    endloop
  endfacet
  facet normal 0 0 1
    outer loop
      vertex 80.5 80.5 4
      vertex 49.5 65.5 4
      vertex 65.5 65.5 4
    endloop
  endfacet
  facet normal 0 0 1
    outer loop
      vertex 49.5 65.5 4
      vertex 41 65.5 4
      vertex 49.5 15 4
    endloop
  endfacet
  facet normal 0 0 1
    outer loop
      vertex 80.5 80.5 4
      vertex 41 65.5 4
      vertex 49.5 65.5 4
    endloop
  endfacet
  facet normal 0 0 1
    outer loop
      vertex 80.5 80.5 4
      vertex 39.5 65.5 4
      vertex 41 65.5 4
    endloop
  endfacet
  facet normal 0 0 1
    outer loop
      vertex 39.5 65.5 4
      vertex 31 65.5 4
      vertex 39.5 15 4
    endloop
  endfacet
  facet normal -0 0 1
    outer loop
      vertex 0 80.5 4
      vertex 39.5 65.5 4
      vertex 80.5 80.5 4
    endloop
  endfacet
  facet normal 0 0 1
    outer loop
      vertex 39.5 65.5 4
      vertex 0 80.5 4
      vertex 31 65.5 4
    endloop
  endfacet
  facet normal 0 0 1
    outer loop
      vertex 15 65.5 4
      vertex 0 80.5 4
      vertex 15 15 4
    endloop
  endfacet
  facet normal 0 0 1
    outer loop
      vertex 31 65.5 4
      vertex 0 80.5 4
      vertex 15 65.5 4
    endloop
  endfacet
  facet normal -0 0 1
    outer loop
      vertex 65.5 15 4
      vertex 80.5 0 4
      vertex 65.5 65.5 4
    endloop
  endfacet
  facet normal -0 0 1
    outer loop
      vertex 49.5 15 4
      vertex 80.5 0 4
      vertex 65.5 15 4
    endloop
  endfacet
  facet normal 0 0 1
    outer loop
      vertex 41 15 4
      vertex 49.5 15 4
      vertex 41 65.5 4
    endloop
  endfacet
  facet normal -0 0 1
    outer loop
      vertex 41 15 4
      vertex 80.5 0 4
      vertex 49.5 15 4
    endloop
  endfacet
  facet normal -0 0 1
    outer loop
      vertex 39.5 15 4
      vertex 80.5 0 4
      vertex 41 15 4
    endloop
  endfacet
  facet normal 0 0 1
    outer loop
      vertex 31 15 4
      vertex 39.5 15 4
      vertex 31 65.5 4
    endloop
  endfacet
  facet normal 0 0 1
    outer loop
      vertex 0 0 4
      vertex 39.5 15 4
      vertex 31 15 4
    endloop
  endfacet
  facet normal 0 0 1
    outer loop
      vertex 0 0 4
      vertex 31 15 4
      vertex 15 15 4
    endloop
  endfacet
  facet normal 0 0 1
    outer loop
      vertex 39.5 15 4
      vertex 0 0 4
      vertex 80.5 0 4
    endloop
  endfacet
  facet normal 0 0 1
    outer loop
      vertex 0 0 4
      vertex 15 15 4
      vertex 0 80.5 4
    endloop
  endfacet
  facet normal 0 0 -1
    outer loop
      vertex 80.5 0 0
      vertex 55.5 25 0
      vertex 80.5 80.5 0
    endloop
  endfacet
  facet normal 0 0 -1
    outer loop
      vertex 80.5 0 0
      vertex 25 25 0
      vertex 55.5 25 0
    endloop
  endfacet
  facet normal -0 0 -1
    outer loop
      vertex 25 25 0
      vertex 0 0 0
      vertex 25 55.5 0
    endloop
  endfacet
  facet normal 0 0 -1
    outer loop
      vertex 0 0 0
      vertex 25 25 0
      vertex 80.5 0 0
    endloop
  endfacet
  facet normal 0 0 -1
    outer loop
      vertex 55.5 55.5 0
      vertex 80.5 80.5 0
      vertex 55.5 25 0
    endloop
  endfacet
  facet normal 0 0 -1
    outer loop
      vertex 25 55.5 0
      vertex 80.5 80.5 0
      vertex 55.5 55.5 0
    endloop
  endfacet
  facet normal 0 0 -1
    outer loop
      vertex 25 55.5 0
      vertex 0 80.5 0
      vertex 80.5 80.5 0
    endloop
  endfacet
  facet normal 0 0 -1
    outer loop
      vertex 0 80.5 0
      vertex 25 55.5 0
      vertex 0 0 0
    endloop
  endfacet
  facet normal -1 0 0
    outer loop
      vertex 0 0 0
      vertex 0 80.5 4
      vertex 0 80.5 0
    endloop
  endfacet
  facet normal -1 -0 0
    outer loop
      vertex 0 80.5 4
      vertex 0 0 0
      vertex 0 0 4
    endloop
  endfacet
  facet normal 0 1 -0
    outer loop
      vertex 80.5 80.5 0
      vertex 0 80.5 4
      vertex 80.5 80.5 4
    endloop
  endfacet
  facet normal 0 1 0
    outer loop
      vertex 0 80.5 4
      vertex 80.5 80.5 0
      vertex 0 80.5 0
    endloop
  endfacet
  facet normal 0 -1 0
    outer loop
      vertex 0 0 0
      vertex 80.5 0 4
      vertex 0 0 4
    endloop
  endfacet
  facet normal 0 -1 -0
    outer loop
      vertex 80.5 0 4
      vertex 0 0 0
      vertex 80.5 0 0
    endloop
  endfacet
  facet normal -1 0 0
    outer loop
      vertex 31 25 1.1
      vertex 31 15 1.1
      vertex 31 25 1.35
    endloop
  endfacet
  facet normal -1 0 0
    outer loop
      vertex 31 55.5 1.35
      vertex 31 65.5 1.1
      vertex 31 55.5 1.1
    endloop
  endfacet
  facet normal -1 0 0
    outer loop
      vertex 31 65.5 1.1
      vertex 31 55.5 1.35
      vertex 31 65.5 4
    endloop
  endfacet
  facet normal -1 0 0
    outer loop
      vertex 31 25 1.35
      vertex 31 65.5 4
      vertex 31 55.5 1.35
    endloop
  endfacet
  facet normal -1 0 0
    outer loop
      vertex 31 15 4
      vertex 31 25 1.35
      vertex 31 15 1.1
    endloop
  endfacet
  facet normal -1 0 0
    outer loop
      vertex 31 25 1.35
      vertex 31 15 4
      vertex 31 65.5 4
    endloop
  endfacet
  facet normal 0 0 1
    outer loop
      vertex 31 65.5 1.1
      vertex 25 55.5 1.1
      vertex 31 55.5 1.1
    endloop
  endfacet
  facet normal 0 0 1
    outer loop
      vertex 25 55.5 1.1
      vertex 15 65.5 1.1
      vertex 25 25 1.1
    endloop
  endfacet
  facet normal -0 0 1
    outer loop
      vertex 15 65.5 1.1
      vertex 25 55.5 1.1
      vertex 31 65.5 1.1
    endloop
  endfacet
  facet normal -0 0 1
    outer loop
      vertex 25 25 1.1
      vertex 31 15 1.1
      vertex 31 25 1.1
    endloop
  endfacet
  facet normal 0 0 1
    outer loop
      vertex 25 25 1.1
      vertex 15 15 1.1
      vertex 31 15 1.1
    endloop
  endfacet
  facet normal 0 0 1
    outer loop
      vertex 15 15 1.1
      vertex 25 25 1.1
      vertex 15 65.5 1.1
    endloop
  endfacet
  facet normal 1 -0 0
    outer loop
      vertex 15 15 4
      vertex 15 65.5 1.1
      vertex 15 65.5 4
    endloop
  endfacet
  facet normal 1 0 0
    outer loop
      vertex 15 65.5 1.1
      vertex 15 15 4
      vertex 15 15 1.1
    endloop
  endfacet
  facet normal 0 -1 0
    outer loop
      vertex 15 65.5 1.1
      vertex 31 65.5 4
      vertex 15 65.5 4
    endloop
  endfacet
  facet normal 0 -1 -0
    outer loop
      vertex 31 65.5 4
      vertex 15 65.5 1.1
      vertex 31 65.5 1.1
    endloop
  endfacet
  facet normal 0 1 -0
    outer loop
      vertex 31 15 1.1
      vertex 15 15 4
      vertex 31 15 4
    endloop
  endfacet
  facet normal 0 1 0
    outer loop
      vertex 15 15 4
      vertex 31 15 1.1
      vertex 15 15 1.1
    endloop
  endfacet
  facet normal -1 0 0
    outer loop
      vertex 41 25 1.1
      vertex 41 15 1.1
      vertex 41 25 1.35
    endloop
  endfacet
  facet normal -1 0 0
    outer loop
      vertex 41 55.5 1.35
      vertex 41 65.5 1.1
      vertex 41 55.5 1.1
    endloop
  endfacet
  facet normal -1 0 0
    outer loop
      vertex 41 65.5 1.1
      vertex 41 55.5 1.35
      vertex 41 65.5 4
    endloop
  endfacet
  facet normal -1 0 0
    outer loop
      vertex 41 25 1.35
      vertex 41 65.5 4
      vertex 41 55.5 1.35
    endloop
  endfacet
  facet normal -1 0 0
    outer loop
      vertex 41 15 4
      vertex 41 25 1.35
      vertex 41 15 1.1
    endloop
  endfacet
  facet normal -1 0 0
    outer loop
      vertex 41 25 1.35
      vertex 41 15 4
      vertex 41 65.5 4
    endloop
  endfacet
  facet normal -0 0 1
    outer loop
      vertex 39.5 65.5 1.1
      vertex 41 55.5 1.1
      vertex 41 65.5 1.1
    endloop
  endfacet
  facet normal 0 0 1
    outer loop
      vertex 41 55.5 1.1
      vertex 39.5 65.5 1.1
      vertex 39.5 55.5 1.1
    endloop
  endfacet
  facet normal -0 0 1
    outer loop
      vertex 39.5 25 1.1
      vertex 41 15 1.1
      vertex 41 25 1.1
    endloop
  endfacet
  facet normal 0 0 1
    outer loop
      vertex 41 15 1.1
      vertex 39.5 25 1.1
      vertex 39.5 15 1.1
    endloop
  endfacet
  facet normal 1 0 0
    outer loop
      vertex 39.5 65.5 4
      vertex 39.5 55.5 1.35
      vertex 39.5 65.5 1.1
    endloop
  endfacet
  facet normal 1 0 0
    outer loop
      vertex 39.5 65.5 4
      vertex 39.5 25 1.35
      vertex 39.5 55.5 1.35
    endloop
  endfacet
  facet normal 1 -0 0
    outer loop
      vertex 39.5 15 4
      vertex 39.5 25 1.35
      vertex 39.5 65.5 4
    endloop
  endfacet
  facet normal 1 0 0
    outer loop
      vertex 39.5 15 1.1
      vertex 39.5 25 1.35
      vertex 39.5 15 4
    endloop
  endfacet
  facet normal 1 0 0
    outer loop
      vertex 39.5 25 1.35
      vertex 39.5 15 1.1
      vertex 39.5 25 1.1
    endloop
  endfacet
  facet normal 1 0 0
    outer loop
      vertex 39.5 65.5 1.1
      vertex 39.5 55.5 1.35
      vertex 39.5 55.5 1.1
    endloop
  endfacet
  facet normal 0 -1 0
    outer loop
      vertex 39.5 65.5 1.1
      vertex 41 65.5 4
      vertex 39.5 65.5 4
    endloop
  endfacet
  facet normal 0 -1 -0
    outer loop
      vertex 41 65.5 4
      vertex 39.5 65.5 1.1
      vertex 41 65.5 1.1
    endloop
  endfacet
  facet normal 0 1 -0
    outer loop
      vertex 41 15 1.1
      vertex 39.5 15 4
      vertex 41 15 4
    endloop
  endfacet
  facet normal 0 1 0
    outer loop
      vertex 39.5 15 4
      vertex 41 15 1.1
      vertex 39.5 15 1.1
    endloop
  endfacet
  facet normal -1 0 0
    outer loop
      vertex 65.5 15 1.1
      vertex 65.5 65.5 4
      vertex 65.5 65.5 1.1
    endloop
  endfacet
  facet normal -1 -0 0
    outer loop
      vertex 65.5 65.5 4
      vertex 65.5 15 1.1
      vertex 65.5 15 4
    endloop
  endfacet
  facet normal 0 0 1
    outer loop
      vertex 65.5 65.5 1.1
      vertex 55.5 55.5 1.1
      vertex 65.5 15 1.1
    endloop
  endfacet
  facet normal -0 0 1
    outer loop
      vertex 49.5 65.5 1.1
      vertex 55.5 55.5 1.1
      vertex 65.5 65.5 1.1
    endloop
  endfacet
  facet normal 0 0 1
    outer loop
      vertex 55.5 55.5 1.1
      vertex 49.5 65.5 1.1
      vertex 49.5 55.5 1.1
    endloop
  endfacet
  facet normal -0 0 1
    outer loop
      vertex 55.5 25 1.1
      vertex 65.5 15 1.1
      vertex 55.5 55.5 1.1
    endloop
  endfacet
  facet normal 0 0 1
    outer loop
      vertex 49.5 15 1.1
      vertex 55.5 25 1.1
      vertex 49.5 25 1.1
    endloop
  endfacet
  facet normal 0 0 1
    outer loop
      vertex 55.5 25 1.1
      vertex 49.5 15 1.1
      vertex 65.5 15 1.1
    endloop
  endfacet
  facet normal 1 0 0
    outer loop
      vertex 49.5 65.5 4
      vertex 49.5 55.5 1.35
      vertex 49.5 65.5 1.1
    endloop
  endfacet
  facet normal 1 0 0
    outer loop
      vertex 49.5 65.5 4
      vertex 49.5 25 1.35
      vertex 49.5 55.5 1.35
    endloop
  endfacet
  facet normal 1 -0 0
    outer loop
      vertex 49.5 15 4
      vertex 49.5 25 1.35
      vertex 49.5 65.5 4
    endloop
  endfacet
  facet normal 1 0 0
    outer loop
      vertex 49.5 15 1.1
      vertex 49.5 25 1.35
      vertex 49.5 15 4
    endloop
  endfacet
  facet normal 1 0 0
    outer loop
      vertex 49.5 25 1.35
      vertex 49.5 15 1.1
      vertex 49.5 25 1.1
    endloop
  endfacet
  facet normal 1 0 0
    outer loop
      vertex 49.5 65.5 1.1
      vertex 49.5 55.5 1.35
      vertex 49.5 55.5 1.1
    endloop
  endfacet
  facet normal 0 -1 0
    outer loop
      vertex 49.5 65.5 1.1
      vertex 65.5 65.5 4
      vertex 49.5 65.5 4
    endloop
  endfacet
  facet normal 0 -1 -0
    outer loop
      vertex 65.5 65.5 4
      vertex 49.5 65.5 1.1
      vertex 65.5 65.5 1.1
    endloop
  endfacet
  facet normal 0 1 -0
    outer loop
      vertex 65.5 15 1.1
      vertex 49.5 15 4
      vertex 65.5 15 4
    endloop
  endfacet
  facet normal 0 1 0
    outer loop
      vertex 49.5 15 4
      vertex 65.5 15 1.1
      vertex 49.5 15 1.1
    endloop
  endfacet
  facet normal -1 0 0
    outer loop
      vertex 55.5 25 0
      vertex 55.5 55.5 1.1
      vertex 55.5 55.5 0
    endloop
  endfacet
  facet normal -1 -0 0
    outer loop
      vertex 55.5 55.5 1.1
      vertex 55.5 25 0
      vertex 55.5 25 1.1
    endloop
  endfacet
  facet normal 0 0 -1
    outer loop
      vertex 31 25 1.35
      vertex 39.5 55.5 1.35
      vertex 39.5 25 1.35
    endloop
  endfacet
  facet normal -0 0 -1
    outer loop
      vertex 39.5 55.5 1.35
      vertex 31 25 1.35
      vertex 31 55.5 1.35
    endloop
  endfacet
  facet normal 0 0 -1
    outer loop
      vertex 41 25 1.35
      vertex 49.5 55.5 1.35
      vertex 49.5 25 1.35
    endloop
  endfacet
  facet normal -0 0 -1
    outer loop
      vertex 49.5 55.5 1.35
      vertex 41 25 1.35
      vertex 41 55.5 1.35
    endloop
  endfacet
  facet normal 1 -0 0
    outer loop
      vertex 25 25 1.1
      vertex 25 55.5 0
      vertex 25 55.5 1.1
    endloop
  endfacet
  facet normal 1 0 0
    outer loop
      vertex 25 55.5 0
      vertex 25 25 1.1
      vertex 25 25 0
    endloop
  endfacet
  facet normal 0 -1 0
    outer loop
      vertex 25 55.5 0
      vertex 31 55.5 1.1
      vertex 25 55.5 1.1
    endloop
  endfacet
  facet normal 0 -1 -0
    outer loop
      vertex 31 55.5 1.1
      vertex 25 55.5 0
      vertex 39.5 55.5 1.1
    endloop
  endfacet
  facet normal 0 -1 -0
    outer loop
      vertex 39.5 55.5 1.1
      vertex 25 55.5 0
      vertex 41 55.5 1.1
    endloop
  endfacet
  facet normal 0 -1 0
    outer loop
      vertex 55.5 55.5 0
      vertex 41 55.5 1.1
      vertex 25 55.5 0
    endloop
  endfacet
  facet normal 0 -1 0
    outer loop
      vertex 41 55.5 1.1
      vertex 55.5 55.5 0
      vertex 49.5 55.5 1.1
    endloop
  endfacet
  facet normal 0 -1 0
    outer loop
      vertex 49.5 55.5 1.1
      vertex 55.5 55.5 0
      vertex 55.5 55.5 1.1
    endloop
  endfacet
  facet normal 0 -1 0
    outer loop
      vertex 31 55.5 1.1
      vertex 39.5 55.5 1.35
      vertex 31 55.5 1.35
    endloop
  endfacet
  facet normal 0 -1 -0
    outer loop
      vertex 39.5 55.5 1.35
      vertex 31 55.5 1.1
      vertex 39.5 55.5 1.1
    endloop
  endfacet
  facet normal 0 -1 0
    outer loop
      vertex 41 55.5 1.1
      vertex 49.5 55.5 1.35
      vertex 41 55.5 1.35
    endloop
  endfacet
  facet normal 0 -1 -0
    outer loop
      vertex 49.5 55.5 1.35
      vertex 41 55.5 1.1
      vertex 49.5 55.5 1.1
    endloop
  endfacet
  facet normal 0 1 -0
    outer loop
      vertex 55.5 25 0
      vertex 49.5 25 1.1
      vertex 55.5 25 1.1
    endloop
  endfacet
  facet normal 0 1 0
    outer loop
      vertex 49.5 25 1.1
      vertex 55.5 25 0
      vertex 41 25 1.1
    endloop
  endfacet
  facet normal 0 1 0
    outer loop
      vertex 41 25 1.1
      vertex 55.5 25 0
      vertex 39.5 25 1.1
    endloop
  endfacet
  facet normal 0 1 0
    outer loop
      vertex 25 25 0
      vertex 39.5 25 1.1
      vertex 55.5 25 0
    endloop
  endfacet
  facet normal 0 1 0
    outer loop
      vertex 39.5 25 1.1
      vertex 25 25 0
      vertex 31 25 1.1
    endloop
  endfacet
  facet normal 0 1 0
    outer loop
      vertex 31 25 1.1
      vertex 25 25 0
      vertex 25 25 1.1
    endloop
  endfacet
  facet normal 0 1 -0
    outer loop
      vertex 49.5 25 1.1
      vertex 41 25 1.35
      vertex 49.5 25 1.35
    endloop
  endfacet
  facet normal 0 1 0
    outer loop
      vertex 41 25 1.35
      vertex 49.5 25 1.1
      vertex 41 25 1.1
    endloop
  endfacet
  facet normal 0 1 -0
    outer loop
      vertex 39.5 25 1.1
      vertex 31 25 1.35
      vertex 39.5 25 1.35
    endloop
  endfacet
  facet normal 0 1 0
    outer loop
      vertex 31 25 1.35
      vertex 39.5 25 1.1
      vertex 31 25 1.1
    endloop
  endfacet
endsolid OpenSCAD_Model
