solid OpenSCAD_Model
  facet normal 1 -0 0
    outer loop
      vertex 60.5 0 5
      vertex 60.5 60.5 0
      vertex 60.5 60.5 5
    endloop
  endfacet
  facet normal 1 0 0
    outer loop
      vertex 60.5 60.5 0
      vertex 60.5 0 5
      vertex 60.5 0 0
    endloop
  endfacet
  facet normal 0 0 1
    outer loop
      vertex 60.5 60.5 5
      vertex 50.5 50.5 5
      vertex 60.5 0 5
    endloop
  endfacet
  facet normal 0 0 1
    outer loop
      vertex 60.5 60.5 5
      vertex 40.75 50.5 5
      vertex 50.5 50.5 5
    endloop
  endfacet
  facet normal 0 0 1
    outer loop
      vertex 40.75 50.5 5
      vertex 31 50.5 5
      vertex 40.75 10 5
    endloop
  endfacet
  facet normal 0 0 1
    outer loop
      vertex 60.5 60.5 5
      vertex 31 50.5 5
      vertex 40.75 50.5 5
    endloop
  endfacet
  facet normal 0 0 1
    outer loop
      vertex 60.5 60.5 5
      vertex 29.5 50.5 5
      vertex 31 50.5 5
    endloop
  endfacet
  facet normal 0 0 1
    outer loop
      vertex 29.5 50.5 5
      vertex 19.75 50.5 5
      vertex 29.5 10 5
    endloop
  endfacet
  facet normal -0 0 1
    outer loop
      vertex 0 60.5 5
      vertex 29.5 50.5 5
      vertex 60.5 60.5 5
    endloop
  endfacet
  facet normal 0 0 1
    outer loop
      vertex 29.5 50.5 5
      vertex 0 60.5 5
      vertex 19.75 50.5 5
    endloop
  endfacet
  facet normal 0 0 1
    outer loop
      vertex 10 50.5 5
      vertex 0 60.5 5
      vertex 10 10 5
    endloop
  endfacet
  facet normal 0 0 1
    outer loop
      vertex 19.75 50.5 5
      vertex 0 60.5 5
      vertex 10 50.5 5
    endloop
  endfacet
  facet normal -0 0 1
    outer loop
      vertex 50.5 10 5
      vertex 60.5 0 5
      vertex 50.5 50.5 5
    endloop
  endfacet
  facet normal -0 0 1
    outer loop
      vertex 40.75 10 5
      vertex 60.5 0 5
      vertex 50.5 10 5
    endloop
  endfacet
  facet normal 0 0 1
    outer loop
      vertex 31 10 5
      vertex 40.75 10 5
      vertex 31 50.5 5
    endloop
  endfacet
  facet normal -0 0 1
    outer loop
      vertex 31 10 5
      vertex 60.5 0 5
      vertex 40.75 10 5
    endloop
  endfacet
  facet normal -0 0 1
    outer loop
      vertex 29.5 10 5
      vertex 60.5 0 5
      vertex 31 10 5
    endloop
  endfacet
  facet normal 0 0 1
    outer loop
      vertex 19.75 10 5
      vertex 29.5 10 5
      vertex 19.75 50.5 5
    endloop
  endfacet
  facet normal 0 0 1
    outer loop
      vertex 0 0 5
      vertex 29.5 10 5
      vertex 19.75 10 5
    endloop
  endfacet
  facet normal 0 0 1
    outer loop
      vertex 0 0 5
      vertex 19.75 10 5
      vertex 10 10 5
    endloop
  endfacet
  facet normal 0 0 1
    outer loop
      vertex 29.5 10 5
      vertex 0 0 5
      vertex 60.5 0 5
    endloop
  endfacet
  facet normal 0 0 1
    outer loop
      vertex 0 0 5
      vertex 10 10 5
      vertex 0 60.5 5
    endloop
  endfacet
  facet normal 0 0 -1
    outer loop
      vertex 60.5 0 0
      vertex 45.5 15 0
      vertex 60.5 60.5 0
    endloop
  endfacet
  facet normal 0 0 -1
    outer loop
      vertex 60.5 0 0
      vertex 15 15 0
      vertex 45.5 15 0
    endloop
  endfacet
  facet normal -0 0 -1
    outer loop
      vertex 15 15 0
      vertex 0 0 0
      vertex 15 45.5 0
    endloop
  endfacet
  facet normal 0 0 -1
    outer loop
      vertex 0 0 0
      vertex 15 15 0
      vertex 60.5 0 0
    endloop
  endfacet
  facet normal 0 0 -1
    outer loop
      vertex 45.5 45.5 0
      vertex 60.5 60.5 0
      vertex 45.5 15 0
    endloop
  endfacet
  facet normal 0 0 -1
    outer loop
      vertex 15 45.5 0
      vertex 60.5 60.5 0
      vertex 45.5 45.5 0
    endloop
  endfacet
  facet normal 0 0 -1
    outer loop
      vertex 15 45.5 0
      vertex 0 60.5 0
      vertex 60.5 60.5 0
    endloop
  endfacet
  facet normal 0 0 -1
    outer loop
      vertex 0 60.5 0
      vertex 15 45.5 0
      vertex 0 0 0
    endloop
  endfacet
  facet normal -1 0 0
    outer loop
      vertex 0 0 0
      vertex 0 60.5 5
      vertex 0 60.5 0
    endloop
  endfacet
  facet normal -1 -0 0
    outer loop
      vertex 0 60.5 5
      vertex 0 0 0
      vertex 0 0 5
    endloop
  endfacet
  facet normal 0 1 -0
    outer loop
      vertex 60.5 60.5 0
      vertex 0 60.5 5
      vertex 60.5 60.5 5
    endloop
  endfacet
  facet normal 0 1 0
    outer loop
      vertex 0 60.5 5
      vertex 60.5 60.5 0
      vertex 0 60.5 0
    endloop
  endfacet
  facet normal 0 -1 0
    outer loop
      vertex 0 0 0
      vertex 60.5 0 5
      vertex 0 0 5
    endloop
  endfacet
  facet normal 0 -1 -0
    outer loop
      vertex 60.5 0 5
      vertex 0 0 0
      vertex 60.5 0 0
    endloop
  endfacet
  facet normal -1 0 0
    outer loop
      vertex 19.75 15 1.1
      vertex 19.75 10 1.1
      vertex 19.75 15 1.35
    endloop
  endfacet
  facet normal -1 0 0
    outer loop
      vertex 19.75 45.5 1.35
      vertex 19.75 50.5 1.1
      vertex 19.75 45.5 1.1
    endloop
  endfacet
  facet normal -1 0 0
    outer loop
      vertex 19.75 50.5 1.1
      vertex 19.75 45.5 1.35
      vertex 19.75 50.5 5
    endloop
  endfacet
  facet normal -1 0 0
    outer loop
      vertex 19.75 15 1.35
      vertex 19.75 50.5 5
      vertex 19.75 45.5 1.35
    endloop
  endfacet
  facet normal -1 0 0
    outer loop
      vertex 19.75 10 5
      vertex 19.75 15 1.35
      vertex 19.75 10 1.1
    endloop
  endfacet
  facet normal -1 0 0
    outer loop
      vertex 19.75 15 1.35
      vertex 19.75 10 5
      vertex 19.75 50.5 5
    endloop
  endfacet
  facet normal 0 0 1
    outer loop
      vertex 19.75 50.5 1.1
      vertex 15 45.5 1.1
      vertex 19.75 45.5 1.1
    endloop
  endfacet
  facet normal 0 0 1
    outer loop
      vertex 15 45.5 1.1
      vertex 10 50.5 1.1
      vertex 15 15 1.1
    endloop
  endfacet
  facet normal -0 0 1
    outer loop
      vertex 10 50.5 1.1
      vertex 15 45.5 1.1
      vertex 19.75 50.5 1.1
    endloop
  endfacet
  facet normal -0 0 1
    outer loop
      vertex 15 15 1.1
      vertex 19.75 10 1.1
      vertex 19.75 15 1.1
    endloop
  endfacet
  facet normal 0 0 1
    outer loop
      vertex 15 15 1.1
      vertex 10 10 1.1
      vertex 19.75 10 1.1
    endloop
  endfacet
  facet normal 0 0 1
    outer loop
      vertex 10 10 1.1
      vertex 15 15 1.1
      vertex 10 50.5 1.1
    endloop
  endfacet
  facet normal 1 -0 0
    outer loop
      vertex 10 10 5
      vertex 10 50.5 1.1
      vertex 10 50.5 5
    endloop
  endfacet
  facet normal 1 0 0
    outer loop
      vertex 10 50.5 1.1
      vertex 10 10 5
      vertex 10 10 1.1
    endloop
  endfacet
  facet normal 0 -1 0
    outer loop
      vertex 10 50.5 1.1
      vertex 19.75 50.5 5
      vertex 10 50.5 5
    endloop
  endfacet
  facet normal 0 -1 -0
    outer loop
      vertex 19.75 50.5 5
      vertex 10 50.5 1.1
      vertex 19.75 50.5 1.1
    endloop
  endfacet
  facet normal 0 1 -0
    outer loop
      vertex 19.75 10 1.1
      vertex 10 10 5
      vertex 19.75 10 5
    endloop
  endfacet
  facet normal 0 1 0
    outer loop
      vertex 10 10 5
      vertex 19.75 10 1.1
      vertex 10 10 1.1
    endloop
  endfacet
  facet normal -1 0 0
    outer loop
      vertex 31 15 1.1
      vertex 31 10 1.1
      vertex 31 15 1.35
    endloop
  endfacet
  facet normal -1 0 0
    outer loop
      vertex 31 45.5 1.35
      vertex 31 50.5 1.1
      vertex 31 45.5 1.1
    endloop
  endfacet
  facet normal -1 0 0
    outer loop
      vertex 31 50.5 1.1
      vertex 31 45.5 1.35
      vertex 31 50.5 5
    endloop
  endfacet
  facet normal -1 0 0
    outer loop
      vertex 31 15 1.35
      vertex 31 50.5 5
      vertex 31 45.5 1.35
    endloop
  endfacet
  facet normal -1 0 0
    outer loop
      vertex 31 10 5
      vertex 31 15 1.35
      vertex 31 10 1.1
    endloop
  endfacet
  facet normal -1 0 0
    outer loop
      vertex 31 15 1.35
      vertex 31 10 5
      vertex 31 50.5 5
    endloop
  endfacet
  facet normal -0 0 1
    outer loop
      vertex 29.5 50.5 1.1
      vertex 31 45.5 1.1
      vertex 31 50.5 1.1
    endloop
  endfacet
  facet normal 0 0 1
    outer loop
      vertex 31 45.5 1.1
      vertex 29.5 50.5 1.1
      vertex 29.5 45.5 1.1
    endloop
  endfacet
  facet normal -0 0 1
    outer loop
      vertex 29.5 15 1.1
      vertex 31 10 1.1
      vertex 31 15 1.1
    endloop
  endfacet
  facet normal 0 0 1
    outer loop
      vertex 31 10 1.1
      vertex 29.5 15 1.1
      vertex 29.5 10 1.1
    endloop
  endfacet
  facet normal 1 0 0
    outer loop
      vertex 29.5 50.5 5
      vertex 29.5 45.5 1.35
      vertex 29.5 50.5 1.1
    endloop
  endfacet
  facet normal 1 0 0
    outer loop
      vertex 29.5 50.5 5
      vertex 29.5 15 1.35
      vertex 29.5 45.5 1.35
    endloop
  endfacet
  facet normal 1 -0 0
    outer loop
      vertex 29.5 10 5
      vertex 29.5 15 1.35
      vertex 29.5 50.5 5
    endloop
  endfacet
  facet normal 1 0 0
    outer loop
      vertex 29.5 10 1.1
      vertex 29.5 15 1.35
      vertex 29.5 10 5
    endloop
  endfacet
  facet normal 1 0 0
    outer loop
      vertex 29.5 15 1.35
      vertex 29.5 10 1.1
      vertex 29.5 15 1.1
    endloop
  endfacet
  facet normal 1 0 0
    outer loop
      vertex 29.5 50.5 1.1
      vertex 29.5 45.5 1.35
      vertex 29.5 45.5 1.1
    endloop
  endfacet
  facet normal 0 -1 0
    outer loop
      vertex 29.5 50.5 1.1
      vertex 31 50.5 5
      vertex 29.5 50.5 5
    endloop
  endfacet
  facet normal 0 -1 -0
    outer loop
      vertex 31 50.5 5
      vertex 29.5 50.5 1.1
      vertex 31 50.5 1.1
    endloop
  endfacet
  facet normal 0 1 -0
    outer loop
      vertex 31 10 1.1
      vertex 29.5 10 5
      vertex 31 10 5
    endloop
  endfacet
  facet normal 0 1 0
    outer loop
      vertex 29.5 10 5
      vertex 31 10 1.1
      vertex 29.5 10 1.1
    endloop
  endfacet
  facet normal -1 0 0
    outer loop
      vertex 50.5 10 1.1
      vertex 50.5 50.5 5
      vertex 50.5 50.5 1.1
    endloop
  endfacet
  facet normal -1 -0 0
    outer loop
      vertex 50.5 50.5 5
      vertex 50.5 10 1.1
      vertex 50.5 10 5
    endloop
  endfacet
  facet normal 0 0 1
    outer loop
      vertex 50.5 50.5 1.1
      vertex 45.5 45.5 1.1
      vertex 50.5 10 1.1
    endloop
  endfacet
  facet normal -0 0 1
    outer loop
      vertex 40.75 50.5 1.1
      vertex 45.5 45.5 1.1
      vertex 50.5 50.5 1.1
    endloop
  endfacet
  facet normal 0 0 1
    outer loop
      vertex 45.5 45.5 1.1
      vertex 40.75 50.5 1.1
      vertex 40.75 45.5 1.1
    endloop
  endfacet
  facet normal -0 0 1
    outer loop
      vertex 45.5 15 1.1
      vertex 50.5 10 1.1
      vertex 45.5 45.5 1.1
    endloop
  endfacet
  facet normal 0 0 1
    outer loop
      vertex 40.75 10 1.1
      vertex 45.5 15 1.1
      vertex 40.75 15 1.1
    endloop
  endfacet
  facet normal 0 0 1
    outer loop
      vertex 45.5 15 1.1
      vertex 40.75 10 1.1
      vertex 50.5 10 1.1
    endloop
  endfacet
  facet normal 1 0 0
    outer loop
      vertex 40.75 50.5 5
      vertex 40.75 45.5 1.35
      vertex 40.75 50.5 1.1
    endloop
  endfacet
  facet normal 1 0 0
    outer loop
      vertex 40.75 50.5 5
      vertex 40.75 15 1.35
      vertex 40.75 45.5 1.35
    endloop
  endfacet
  facet normal 1 -0 0
    outer loop
      vertex 40.75 10 5
      vertex 40.75 15 1.35
      vertex 40.75 50.5 5
    endloop
  endfacet
  facet normal 1 0 0
    outer loop
      vertex 40.75 10 1.1
      vertex 40.75 15 1.35
      vertex 40.75 10 5
    endloop
  endfacet
  facet normal 1 0 0
    outer loop
      vertex 40.75 15 1.35
      vertex 40.75 10 1.1
      vertex 40.75 15 1.1
    endloop
  endfacet
  facet normal 1 0 0
    outer loop
      vertex 40.75 50.5 1.1
      vertex 40.75 45.5 1.35
      vertex 40.75 45.5 1.1
    endloop
  endfacet
  facet normal 0 -1 0
    outer loop
      vertex 40.75 50.5 1.1
      vertex 50.5 50.5 5
      vertex 40.75 50.5 5
    endloop
  endfacet
  facet normal 0 -1 -0
    outer loop
      vertex 50.5 50.5 5
      vertex 40.75 50.5 1.1
      vertex 50.5 50.5 1.1
    endloop
  endfacet
  facet normal 0 1 -0
    outer loop
      vertex 50.5 10 1.1
      vertex 40.75 10 5
      vertex 50.5 10 5
    endloop
  endfacet
  facet normal 0 1 0
    outer loop
      vertex 40.75 10 5
      vertex 50.5 10 1.1
      vertex 40.75 10 1.1
    endloop
  endfacet
  facet normal -1 0 0
    outer loop
      vertex 45.5 15 0
      vertex 45.5 45.5 1.1
      vertex 45.5 45.5 0
    endloop
  endfacet
  facet normal -1 -0 0
    outer loop
      vertex 45.5 45.5 1.1
      vertex 45.5 15 0
      vertex 45.5 15 1.1
    endloop
  endfacet
  facet normal 0 0 -1
    outer loop
      vertex 19.75 15 1.35
      vertex 29.5 45.5 1.35
      vertex 29.5 15 1.35
    endloop
  endfacet
  facet normal -0 0 -1
    outer loop
      vertex 29.5 45.5 1.35
      vertex 19.75 15 1.35
      vertex 19.75 45.5 1.35
    endloop
  endfacet
  facet normal 0 0 -1
    outer loop
      vertex 31 15 1.35
      vertex 40.75 45.5 1.35
      vertex 40.75 15 1.35
    endloop
  endfacet
  facet normal -0 0 -1
    outer loop
      vertex 40.75 45.5 1.35
      vertex 31 15 1.35
      vertex 31 45.5 1.35
    endloop
  endfacet
  facet normal 1 -0 0
    outer loop
      vertex 15 15 1.1
      vertex 15 45.5 0
      vertex 15 45.5 1.1
    endloop
  endfacet
  facet normal 1 0 0
    outer loop
      vertex 15 45.5 0
      vertex 15 15 1.1
      vertex 15 15 0
    endloop
  endfacet
  facet normal 0 -1 0
    outer loop
      vertex 15 45.5 0
      vertex 19.75 45.5 1.1
      vertex 15 45.5 1.1
    endloop
  endfacet
  facet normal 0 -1 -0
    outer loop
      vertex 19.75 45.5 1.1
      vertex 15 45.5 0
      vertex 29.5 45.5 1.1
    endloop
  endfacet
  facet normal 0 -1 -0
    outer loop
      vertex 29.5 45.5 1.1
      vertex 15 45.5 0
      vertex 31 45.5 1.1
    endloop
  endfacet
  facet normal 0 -1 0
    outer loop
      vertex 45.5 45.5 0
      vertex 31 45.5 1.1
      vertex 15 45.5 0
    endloop
  endfacet
  facet normal 0 -1 0
    outer loop
      vertex 31 45.5 1.1
      vertex 45.5 45.5 0
      vertex 40.75 45.5 1.1
    endloop
  endfacet
  facet normal 0 -1 0
    outer loop
      vertex 40.75 45.5 1.1
      vertex 45.5 45.5 0
      vertex 45.5 45.5 1.1
    endloop
  endfacet
  facet normal 0 -1 0
    outer loop
      vertex 19.75 45.5 1.1
      vertex 29.5 45.5 1.35
      vertex 19.75 45.5 1.35
    endloop
  endfacet
  facet normal 0 -1 -0
    outer loop
      vertex 29.5 45.5 1.35
      vertex 19.75 45.5 1.1
      vertex 29.5 45.5 1.1
    endloop
  endfacet
  facet normal 0 -1 0
    outer loop
      vertex 31 45.5 1.1
      vertex 40.75 45.5 1.35
      vertex 31 45.5 1.35
    endloop
  endfacet
  facet normal 0 -1 -0
    outer loop
      vertex 40.75 45.5 1.35
      vertex 31 45.5 1.1
      vertex 40.75 45.5 1.1
    endloop
  endfacet
  facet normal 0 1 -0
    outer loop
      vertex 45.5 15 0
      vertex 40.75 15 1.1
      vertex 45.5 15 1.1
    endloop
  endfacet
  facet normal 0 1 0
    outer loop
      vertex 40.75 15 1.1
      vertex 45.5 15 0
      vertex 31 15 1.1
    endloop
  endfacet
  facet normal 0 1 0
    outer loop
      vertex 31 15 1.1
      vertex 45.5 15 0
      vertex 29.5 15 1.1
    endloop
  endfacet
  facet normal 0 1 0
    outer loop
      vertex 15 15 0
      vertex 29.5 15 1.1
      vertex 45.5 15 0
    endloop
  endfacet
  facet normal 0 1 0
    outer loop
      vertex 29.5 15 1.1
      vertex 15 15 0
      vertex 19.75 15 1.1
    endloop
  endfacet
  facet normal 0 1 0
    outer loop
      vertex 19.75 15 1.1
      vertex 15 15 0
      vertex 15 15 1.1
    endloop
  endfacet
  facet normal 0 1 -0
    outer loop
      vertex 40.75 15 1.1
      vertex 31 15 1.35
      vertex 40.75 15 1.35
    endloop
  endfacet
  facet normal 0 1 0
    outer loop
      vertex 31 15 1.35
      vertex 40.75 15 1.1
      vertex 31 15 1.1
    endloop
  endfacet
  facet normal 0 1 -0
    outer loop
      vertex 29.5 15 1.1
      vertex 19.75 15 1.35
      vertex 29.5 15 1.35
    endloop
  endfacet
  facet normal 0 1 0
    outer loop
      vertex 19.75 15 1.35
      vertex 29.5 15 1.1
      vertex 19.75 15 1.1
    endloop
  endfacet
endsolid OpenSCAD_Model
