solid OpenSCAD_Model
  facet normal 1 -0 0
    outer loop
      vertex 20 -20 3
      vertex 20 20 0
      vertex 20 20 3
    endloop
  endfacet
  facet normal 1 0 0
    outer loop
      vertex 20 20 0
      vertex 20 -20 3
      vertex 20 -20 0
    endloop
  endfacet
  facet normal 0 0 1
    outer loop
      vertex 20 20 3
      vertex 7.6 7.6 3
      vertex 20 -20 3
    endloop
  endfacet
  facet normal 0 0 1
    outer loop
      vertex 20 20 3
      vertex -7.6 7.6 3
      vertex 7.6 7.6 3
    endloop
  endfacet
  facet normal 0 0 1
    outer loop
      vertex -7.6 7.6 3
      vertex -20 20 3
      vertex -7.6 -7.6 3
    endloop
  endfacet
  facet normal -0 0 1
    outer loop
      vertex -20 20 3
      vertex -7.6 7.6 3
      vertex 20 20 3
    endloop
  endfacet
  facet normal -0 0 1
    outer loop
      vertex 7.6 -7.6 3
      vertex 20 -20 3
      vertex 7.6 7.6 3
    endloop
  endfacet
  facet normal -0 0 1
    outer loop
      vertex -7.6 -7.6 3
      vertex 20 -20 3
      vertex 7.6 -7.6 3
    endloop
  endfacet
  facet normal 0 0 1
    outer loop
      vertex -7.6 -7.6 3
      vertex -20 -20 3
      vertex 20 -20 3
    endloop
  endfacet
  facet normal 0 0 1
    outer loop
      vertex -20 -20 3
      vertex -7.6 -7.6 3
      vertex -20 20 3
    endloop
  endfacet
  facet normal 0 0 -1
    outer loop
      vertex 20 -20 0
      vertex 6.5 -6.5 0
      vertex 20 20 0
    endloop
  endfacet
  facet normal 0 0 -1
    outer loop
      vertex 20 -20 0
      vertex -6.5 -6.5 0
      vertex 6.5 -6.5 0
    endloop
  endfacet
  facet normal -0 0 -1
    outer loop
      vertex -6.5 -6.5 0
      vertex -20 -20 0
      vertex -6.5 6.5 0
    endloop
  endfacet
  facet normal 0 0 -1
    outer loop
      vertex -20 -20 0
      vertex -6.5 -6.5 0
      vertex 20 -20 0
    endloop
  endfacet
  facet normal 0 0 -1
    outer loop
      vertex 6.5 6.5 0
      vertex 20 20 0
      vertex 6.5 -6.5 0
    endloop
  endfacet
  facet normal 0 0 -1
    outer loop
      vertex -6.5 6.5 0
      vertex 20 20 0
      vertex 6.5 6.5 0
    endloop
  endfacet
  facet normal 0 0 -1
    outer loop
      vertex -6.5 6.5 0
      vertex -20 20 0
      vertex 20 20 0
    endloop
  endfacet
  facet normal 0 0 -1
    outer loop
      vertex -20 20 0
      vertex -6.5 6.5 0
      vertex -20 -20 0
    endloop
  endfacet
  facet normal -1 0 0
    outer loop
      vertex -20 -20 0
      vertex -20 20 3
      vertex -20 20 0
    endloop
  endfacet
  facet normal -1 -0 0
    outer loop
      vertex -20 20 3
      vertex -20 -20 0
      vertex -20 -20 3
    endloop
  endfacet
  facet normal 0 1 -0
    outer loop
      vertex 20 20 0
      vertex -20 20 3
      vertex 20 20 3
    endloop
  endfacet
  facet normal 0 1 0
    outer loop
      vertex -20 20 3
      vertex 20 20 0
      vertex -20 20 0
    endloop
  endfacet
  facet normal 0 -1 0
    outer loop
      vertex -20 -20 0
      vertex 20 -20 3
      vertex -20 -20 3
    endloop
  endfacet
  facet normal 0 -1 -0
    outer loop
      vertex 20 -20 3
      vertex -20 -20 0
      vertex 20 -20 0
    endloop
  endfacet
  facet normal -1 0 0
    outer loop
      vertex 6.5 -6.5 0
      vertex 6.5 6.5 0.5
      vertex 6.5 6.5 0
    endloop
  endfacet
  facet normal -1 -0 0
    outer loop
      vertex 6.5 6.5 0.5
      vertex 6.5 -6.5 0
      vertex 6.5 -6.5 0.5
    endloop
  endfacet
  facet normal 1 -0 0
    outer loop
      vertex -6.5 -6.5 0.5
      vertex -6.5 6.5 0
      vertex -6.5 6.5 0.5
    endloop
  endfacet
  facet normal 1 0 0
    outer loop
      vertex -6.5 6.5 0
      vertex -6.5 -6.5 0.5
      vertex -6.5 -6.5 0
    endloop
  endfacet
  facet normal 0 -1 0
    outer loop
      vertex -6.5 6.5 0
      vertex 6.5 6.5 0.5
      vertex -6.5 6.5 0.5
    endloop
  endfacet
  facet normal 0 -1 -0
    outer loop
      vertex 6.5 6.5 0.5
      vertex -6.5 6.5 0
      vertex 6.5 6.5 0
    endloop
  endfacet
  facet normal 0 1 -0
    outer loop
      vertex 6.5 -6.5 0
      vertex -6.5 -6.5 0.5
      vertex 6.5 -6.5 0.5
    endloop
  endfacet
  facet normal 0 1 0
    outer loop
      vertex -6.5 -6.5 0.5
      vertex 6.5 -6.5 0
      vertex -6.5 -6.5 0
    endloop
  endfacet
  facet normal -1 0 0
    outer loop
      vertex 7.6 -7.6 0.5
      vertex 7.6 7.6 3
      vertex 7.6 7.6 0.5
    endloop
  endfacet
  facet normal -1 -0 0
    outer loop
      vertex 7.6 7.6 3
      vertex 7.6 -7.6 0.5
      vertex 7.6 -7.6 3
    endloop
  endfacet
  facet normal 0 0 1
    outer loop
      vertex 7.6 7.6 0.5
      vertex 6.5 6.5 0.5
      vertex 7.6 -7.6 0.5
    endloop
  endfacet
  facet normal 0 0 1
    outer loop
      vertex 7.6 7.6 0.5
      vertex -6.5 6.5 0.5
      vertex 6.5 6.5 0.5
    endloop
  endfacet
  facet normal 0 0 1
    outer loop
      vertex -6.5 6.5 0.5
      vertex -7.6 7.6 0.5
      vertex -6.5 -6.5 0.5
    endloop
  endfacet
  facet normal -0 0 1
    outer loop
      vertex -7.6 7.6 0.5
      vertex -6.5 6.5 0.5
      vertex 7.6 7.6 0.5
    endloop
  endfacet
  facet normal -0 0 1
    outer loop
      vertex 6.5 -6.5 0.5
      vertex 7.6 -7.6 0.5
      vertex 6.5 6.5 0.5
    endloop
  endfacet
  facet normal -0 0 1
    outer loop
      vertex -6.5 -6.5 0.5
      vertex 7.6 -7.6 0.5
      vertex 6.5 -6.5 0.5
    endloop
  endfacet
  facet normal 0 0 1
    outer loop
      vertex -6.5 -6.5 0.5
      vertex -7.6 -7.6 0.5
      vertex 7.6 -7.6 0.5
    endloop
  endfacet
  facet normal 0 0 1
    outer loop
      vertex -7.6 -7.6 0.5
      vertex -6.5 -6.5 0.5
      vertex -7.6 7.6 0.5
    endloop
  endfacet
  facet normal 1 -0 0
    outer loop
      vertex -7.6 -7.6 3
      vertex -7.6 7.6 0.5
      vertex -7.6 7.6 3
    endloop
  endfacet
  facet normal 1 0 0
    outer loop
      vertex -7.6 7.6 0.5
      vertex -7.6 -7.6 3
      vertex -7.6 -7.6 0.5
    endloop
  endfacet
  facet normal 0 -1 0
    outer loop
      vertex -7.6 7.6 0.5
      vertex 7.6 7.6 3
      vertex -7.6 7.6 3
    endloop
  endfacet
  facet normal 0 -1 -0
    outer loop
      vertex 7.6 7.6 3
      vertex -7.6 7.6 0.5
      vertex 7.6 7.6 0.5
    endloop
  endfacet
  facet normal 0 1 -0
    outer loop
      vertex 7.6 -7.6 0.5
      vertex -7.6 -7.6 3
      vertex 7.6 -7.6 3
    endloop
  endfacet
  facet normal 0 1 0
    outer loop
      vertex -7.6 -7.6 3
      vertex 7.6 -7.6 0.5
      vertex -7.6 -7.6 0.5
    endloop
  endfacet
endsolid OpenSCAD_Model
