solid OpenSCAD_Model
  facet normal 1 -0 0
    outer loop
      vertex 22.5 -22.5 3
      vertex 22.5 22.5 0
      vertex 22.5 22.5 3
    endloop
  endfacet
  facet normal 1 0 0
    outer loop
      vertex 22.5 22.5 0
      vertex 22.5 -22.5 3
      vertex 22.5 -22.5 0
    endloop
  endfacet
  facet normal 0 0 1
    outer loop
      vertex 22.5 22.5 3
      vertex 7.7 7.7 3
      vertex 22.5 -22.5 3
    endloop
  endfacet
  facet normal 0 0 1
    outer loop
      vertex 22.5 22.5 3
      vertex -7.7 7.7 3
      vertex 7.7 7.7 3
    endloop
  endfacet
  facet normal 0 0 1
    outer loop
      vertex -7.7 7.7 3
      vertex -22.5 22.5 3
      vertex -7.7 -7.7 3
    endloop
  endfacet
  facet normal -0 0 1
    outer loop
      vertex -22.5 22.5 3
      vertex -7.7 7.7 3
      vertex 22.5 22.5 3
    endloop
  endfacet
  facet normal -0 0 1
    outer loop
      vertex 7.7 -7.7 3
      vertex 22.5 -22.5 3
      vertex 7.7 7.7 3
    endloop
  endfacet
  facet normal -0 0 1
    outer loop
      vertex -7.7 -7.7 3
      vertex 22.5 -22.5 3
      vertex 7.7 -7.7 3
    endloop
  endfacet
  facet normal 0 0 1
    outer loop
      vertex -7.7 -7.7 3
      vertex -22.5 -22.5 3
      vertex 22.5 -22.5 3
    endloop
  endfacet
  facet normal 0 0 1
    outer loop
      vertex -22.5 -22.5 3
      vertex -7.7 -7.7 3
      vertex -22.5 22.5 3
    endloop
  endfacet
  facet normal 0 0 -1
    outer loop
      vertex 22.5 -22.5 0
      vertex 6.5 -6.5 0
      vertex 22.5 22.5 0
    endloop
  endfacet
  facet normal 0 0 -1
    outer loop
      vertex 22.5 -22.5 0
      vertex -6.5 -6.5 0
      vertex 6.5 -6.5 0
    endloop
  endfacet
  facet normal -0 0 -1
    outer loop
      vertex -6.5 -6.5 0
      vertex -22.5 -22.5 0
      vertex -6.5 6.5 0
    endloop
  endfacet
  facet normal 0 0 -1
    outer loop
      vertex -22.5 -22.5 0
      vertex -6.5 -6.5 0
      vertex 22.5 -22.5 0
    endloop
  endfacet
  facet normal 0 0 -1
    outer loop
      vertex 6.5 6.5 0
      vertex 22.5 22.5 0
      vertex 6.5 -6.5 0
    endloop
  endfacet
  facet normal 0 0 -1
    outer loop
      vertex -6.5 6.5 0
      vertex 22.5 22.5 0
      vertex 6.5 6.5 0
    endloop
  endfacet
  facet normal 0 0 -1
    outer loop
      vertex -6.5 6.5 0
      vertex -22.5 22.5 0
      vertex 22.5 22.5 0
    endloop
  endfacet
  facet normal 0 0 -1
    outer loop
      vertex -22.5 22.5 0
      vertex -6.5 6.5 0
      vertex -22.5 -22.5 0
    endloop
  endfacet
  facet normal -1 0 0
    outer loop
      vertex -22.5 -22.5 0
      vertex -22.5 22.5 3
      vertex -22.5 22.5 0
    endloop
  endfacet
  facet normal -1 -0 0
    outer loop
      vertex -22.5 22.5 3
      vertex -22.5 -22.5 0
      vertex -22.5 -22.5 3
    endloop
  endfacet
  facet normal 0 1 -0
    outer loop
      vertex 22.5 22.5 0
      vertex -22.5 22.5 3
      vertex 22.5 22.5 3
    endloop
  endfacet
  facet normal 0 1 0
    outer loop
      vertex -22.5 22.5 3
      vertex 22.5 22.5 0
      vertex -22.5 22.5 0
    endloop
  endfacet
  facet normal 0 -1 0
    outer loop
      vertex -22.5 -22.5 0
      vertex 22.5 -22.5 3
      vertex -22.5 -22.5 3
    endloop
  endfacet
  facet normal 0 -1 -0
    outer loop
      vertex 22.5 -22.5 3
      vertex -22.5 -22.5 0
      vertex 22.5 -22.5 0
    endloop
  endfacet
  facet normal -1 0 0
    outer loop
      vertex 6.5 -6.5 0
      vertex 6.5 6.5 0.5
      vertex 6.5 6.5 0
    endloop
  endfacet
  facet normal -1 -0 0
    outer loop
      vertex 6.5 6.5 0.5
      vertex 6.5 -6.5 0
      vertex 6.5 -6.5 0.5
    endloop
  endfacet
  facet normal 1 -0 0
    outer loop
      vertex -6.5 -6.5 0.5
      vertex -6.5 6.5 0
      vertex -6.5 6.5 0.5
    endloop
  endfacet
  facet normal 1 0 0
    outer loop
      vertex -6.5 6.5 0
      vertex -6.5 -6.5 0.5
      vertex -6.5 -6.5 0
    endloop
  endfacet
  facet normal 0 -1 0
    outer loop
      vertex -6.5 6.5 0
      vertex 6.5 6.5 0.5
      vertex -6.5 6.5 0.5
    endloop
  endfacet
  facet normal 0 -1 -0
    outer loop
      vertex 6.5 6.5 0.5
      vertex -6.5 6.5 0
      vertex 6.5 6.5 0
    endloop
  endfacet
  facet normal 0 1 -0
    outer loop
      vertex 6.5 -6.5 0
      vertex -6.5 -6.5 0.5
      vertex 6.5 -6.5 0.5
    endloop
  endfacet
  facet normal 0 1 0
    outer loop
      vertex -6.5 -6.5 0.5
      vertex 6.5 -6.5 0
      vertex -6.5 -6.5 0
    endloop
  endfacet
  facet normal -1 0 0
    outer loop
      vertex 7.7 -7.7 0.5
      vertex 7.7 7.7 3
      vertex 7.7 7.7 0.5
    endloop
  endfacet
  facet normal -1 -0 0
    outer loop
      vertex 7.7 7.7 3
      vertex 7.7 -7.7 0.5
      vertex 7.7 -7.7 3
    endloop
  endfacet
  facet normal 0 0 1
    outer loop
      vertex 7.7 7.7 0.5
      vertex 6.5 6.5 0.5
      vertex 7.7 -7.7 0.5
    endloop
  endfacet
  facet normal 0 0 1
    outer loop
      vertex 7.7 7.7 0.5
      vertex -6.5 6.5 0.5
      vertex 6.5 6.5 0.5
    endloop
  endfacet
  facet normal 0 0 1
    outer loop
      vertex -6.5 6.5 0.5
      vertex -7.7 7.7 0.5
      vertex -6.5 -6.5 0.5
    endloop
  endfacet
  facet normal -0 0 1
    outer loop
      vertex -7.7 7.7 0.5
      vertex -6.5 6.5 0.5
      vertex 7.7 7.7 0.5
    endloop
  endfacet
  facet normal -0 0 1
    outer loop
      vertex 6.5 -6.5 0.5
      vertex 7.7 -7.7 0.5
      vertex 6.5 6.5 0.5
    endloop
  endfacet
  facet normal -0 0 1
    outer loop
      vertex -6.5 -6.5 0.5
      vertex 7.7 -7.7 0.5
      vertex 6.5 -6.5 0.5
    endloop
  endfacet
  facet normal 0 0 1
    outer loop
      vertex -6.5 -6.5 0.5
      vertex -7.7 -7.7 0.5
      vertex 7.7 -7.7 0.5
    endloop
  endfacet
  facet normal 0 0 1
    outer loop
      vertex -7.7 -7.7 0.5
      vertex -6.5 -6.5 0.5
      vertex -7.7 7.7 0.5
    endloop
  endfacet
  facet normal 1 -0 0
    outer loop
      vertex -7.7 -7.7 3
      vertex -7.7 7.7 0.5
      vertex -7.7 7.7 3
    endloop
  endfacet
  facet normal 1 0 0
    outer loop
      vertex -7.7 7.7 0.5
      vertex -7.7 -7.7 3
      vertex -7.7 -7.7 0.5
    endloop
  endfacet
  facet normal 0 -1 0
    outer loop
      vertex -7.7 7.7 0.5
      vertex 7.7 7.7 3
      vertex -7.7 7.7 3
    endloop
  endfacet
  facet normal 0 -1 -0
    outer loop
      vertex 7.7 7.7 3
      vertex -7.7 7.7 0.5
      vertex 7.7 7.7 0.5
    endloop
  endfacet
  facet normal 0 1 -0
    outer loop
      vertex 7.7 -7.7 0.5
      vertex -7.7 -7.7 3
      vertex 7.7 -7.7 3
    endloop
  endfacet
  facet normal 0 1 0
    outer loop
      vertex -7.7 -7.7 3
      vertex 7.7 -7.7 0.5
      vertex -7.7 -7.7 0.5
    endloop
  endfacet
endsolid OpenSCAD_Model
